<svg width="248" height="125" viewBox="0 0 248 125" fill="none" xmlns="http://www.w3.org/2000/svg">
<g clip-path="url(#clip0_216_177)">
<path d="M95.7094 89.656V90.6874C94.872 90.3041 94.1811 89.9905 93.0506 89.4679C93.56 90.2832 93.8113 90.6943 94.3556 91.5724C91.9061 90.4086 89.8894 89.4609 87.8796 88.5062C87.74 88.7571 87.6004 89.0149 87.4678 89.2658C88.9054 90.1647 90.35 91.0567 91.641 91.865C91.4246 92.5688 91.2502 93.1472 90.9571 94.0949C89.5265 93.1054 88.1099 91.9556 86.5327 91.1055C85.5837 90.5968 84.3764 90.555 83.1901 90.6874C85.158 92.3946 87.1189 94.0949 89.0869 95.8022C88.9403 96.0043 88.7938 96.1994 88.6472 96.4015C86.8328 94.9939 85.0254 93.5862 83.211 92.1786C83.1133 92.2971 83.0156 92.4225 82.9109 92.541C83.7065 93.3493 84.495 94.1646 85.2906 94.973C85.1719 95.1332 85.0463 95.2865 84.9277 95.4468C82.7993 93.4747 80.3777 92.2065 77.4538 92.0601C79.324 93.0636 81.1942 94.0601 83.0645 95.0635C83.0016 95.1959 82.9458 95.3353 82.883 95.4677C80.2801 94.52 77.6841 93.5723 75.0811 92.6316C74.9974 92.8127 74.9206 92.9869 74.8369 93.1681C76.721 94.297 78.6052 95.4259 80.4824 96.5548C80.4057 96.7081 80.3289 96.8614 80.2521 97.0147C77.8097 95.8719 75.3672 94.736 72.9248 93.5932C72.8061 93.8023 72.6875 94.0183 72.5689 94.2273C74.3274 95.4538 76.086 96.6733 77.8376 97.8997C77.7399 98.053 77.6352 98.2063 77.5375 98.3596C75.772 97.4258 73.9995 96.499 72.2339 95.5653C72.1711 95.6768 72.1083 95.7883 72.0455 95.8998C73.3435 96.7708 74.6345 97.6419 75.9325 98.5129C72.4991 98.3248 70.1822 94.8057 66.4278 95.5792C69.1285 97.7882 73.5249 97.5095 75.3323 101.621C73.5528 100.541 72.1083 99.6627 70.6638 98.7917C70.6219 98.8823 70.58 98.9728 70.5381 99.0704C72.6666 101.551 74.802 104.025 76.9304 106.506C76.8048 106.61 76.6861 106.715 76.5605 106.819C74.8578 105.628 73.2667 104.206 71.4244 103.3C69.6589 102.436 68.647 100.227 66.2255 100.506C69.1564 103.481 73.1132 105.3 75.4649 108.91C70.58 105.941 66.6651 101.377 60.7055 100.199C64.7251 102.652 68.654 105.21 72.1362 108.352C72.0246 108.52 71.9129 108.687 71.7943 108.854C71.229 108.513 70.6289 108.213 70.0915 107.83C67.9282 106.297 65.8905 104.541 63.5946 103.251C61.8151 102.255 59.917 101.161 57.621 101.628C56.7138 101.809 55.7369 101.656 54.7599 101.837C56.3789 102.339 58.0118 102.805 59.6099 103.363C62.0663 104.206 64.1738 105.6 65.723 107.697C66.1138 108.22 66.1278 109.014 66.372 109.655C66.5255 110.06 66.714 110.478 67.0001 110.791C67.9561 111.864 68.961 112.889 69.6868 114.227C66.9652 111.934 64.4529 109.432 61.2987 107.816C61.1591 107.969 61.0195 108.122 60.873 108.276C61.6546 109.077 62.4431 109.871 63.2178 110.673C64.3204 111.816 65.4578 112.931 66.4837 114.136C66.7698 114.471 66.707 115.091 66.8047 115.579C66.3162 115.607 65.7579 115.802 65.3671 115.627C64.5716 115.265 63.8319 114.756 63.134 114.213C59.6518 111.502 55.5694 110.485 51.3055 109.955C50.7961 109.892 50.3007 109.676 49.7982 109.544C48.905 109.307 48.0187 108.986 47.1045 108.868C45.2552 108.638 43.392 108.575 41.5427 108.325C40.5657 108.192 40.3773 107.446 41.0751 106.805C42.0591 105.893 43.0849 104.924 44.2713 104.325C50.2169 101.307 56.2742 98.5129 62.1919 95.4398C69.6519 91.5584 77.398 88.4226 85.3185 85.6492C88.1657 84.6527 90.8873 83.3008 93.5461 82.158C92.6807 81.5866 91.9969 81.1267 91.1315 80.5552C90.7407 81.1267 90.2104 81.9002 89.5335 82.8827C89.1078 82.165 88.8007 81.6493 88.382 80.9385C87.8098 81.8862 87.3004 82.7294 86.6514 83.8025C86.135 83.0151 85.8 82.5134 85.2487 81.6702C84.6974 82.9036 84.2438 83.914 83.6088 85.3217C83.1203 84.3252 82.7714 83.6214 82.2619 82.5761C81.3966 83.9628 80.6499 85.1614 79.645 86.785C79.4636 85.4053 79.338 84.4576 79.1705 83.2102C78.4587 84.7433 77.9004 85.9558 77.3421 87.1613C77.1398 87.1544 76.9374 87.1404 76.728 87.1335C76.6164 86.0812 76.5117 85.0359 76.4 83.9837C76.2535 83.9419 76.1 83.9071 75.9534 83.8652C75.451 85.238 74.9485 86.6178 74.4461 87.9906C74.2786 88.0463 74.1181 88.109 73.9506 88.1648C73.6366 87.1544 73.3295 86.137 72.9666 84.9663C72.2548 86.3948 71.6059 87.7049 70.6917 89.5376C70.3986 88.2414 70.2171 87.454 70.0427 86.6596C69.8892 86.6178 69.7356 86.576 69.5751 86.5272C69.3239 87.5098 69.0657 88.4923 68.7098 89.8721C68.1376 88.8965 67.7119 88.1648 67.035 87.008C66.4278 88.1439 65.9533 89.0289 65.388 90.0881C64.9624 89.4052 64.6344 88.8825 64.2506 88.2693C61.9686 89.0219 62.9177 91.4957 61.515 93.1542C61.2917 91.8511 61.1242 90.8825 60.9567 89.9139C60.8102 89.8512 60.6636 89.7815 60.5171 89.7188C60.1752 90.4226 59.7285 91.1055 59.5192 91.8511C59.2889 92.6664 59.2819 93.5444 59.1214 94.7918C58.3328 93.9207 57.8304 93.3563 57.321 92.7918C56.972 93.4469 56.6161 94.1019 56.2533 94.7848C54.4249 94.297 53.2735 95.1867 52.7989 97.4537C52.2267 96.6245 51.808 96.0182 51.1869 95.1123C50.7403 95.7325 50.2588 96.2064 50.0215 96.7778C49.7982 97.3144 49.8261 97.9624 49.6726 99.0774C49.0445 97.9833 48.6956 97.3771 48.3118 96.7151C46.9929 98.7359 47.0766 98.931 49.6517 100.297C48.2653 100.961 46.9673 100.025 45.7577 97.4886C45.1715 98.1087 44.669 98.6384 44.5225 98.7917C43.4339 98.9728 42.3941 98.8544 42.0661 99.2795C41.5916 99.8857 41.6334 100.896 41.0542 101.83C40.7472 101.217 40.4401 100.603 39.8818 99.4746C39.191 100.715 38.6327 101.718 37.9069 103.022H41.9195C41.9475 103.238 41.9754 103.454 42.0103 103.67C40.4541 103.886 38.8909 104.109 37.3347 104.325C37.3138 104.492 37.2928 104.659 37.2719 104.826C38.2628 105.001 39.2468 105.175 40.2377 105.342C40.2377 105.405 40.2447 105.46 40.2517 105.523C39.3236 105.523 38.3954 105.572 37.4673 105.509C36.4066 105.433 35.2481 105.488 34.334 105.056C33.5245 104.673 33.0011 103.69 32.2474 102.868C31.9055 103.37 31.6054 103.816 31.2635 104.318C30.1888 103.642 29.1769 103.001 28.0464 102.29C27.7044 102.443 27.1741 102.68 26.6507 102.917C26.6856 102.771 26.7275 102.624 26.7624 102.485C25.6109 102.018 24.3827 101.677 23.315 101.063C18.9814 98.5756 14.2919 96.5757 11.0539 92.5201C10.705 92.088 10.4607 91.5515 10.2514 91.0288C9.95128 90.2902 9.73495 89.5167 9.38603 88.4714C8.9115 89.1473 8.63934 89.5376 8.09502 90.3111C7.67631 88.7153 7.34832 87.4819 6.95055 85.9837C8.67423 85.6701 10.4188 85.3565 12.1565 85.0429C11.7378 83.0012 7.94149 77.8654 6.5458 77.8654C7.74609 79.9629 8.84869 81.8932 9.95128 83.8234C8.10897 83.482 7.50185 82.0116 6.61559 80.7991C5.78515 79.6702 5.61767 77.9142 3.46133 77.8445C4.20104 79.3567 4.94076 80.8688 5.6735 82.381L5.13616 82.6527C1.96096 80.3113 1.06074 76.6668 -0.0278931 72.9178H2.28895C0.774628 70.9109 1.3329 69.0225 3.57298 68.3186C4.46623 68.0399 5.42925 67.789 6.35041 67.803C10.3909 67.8866 13.9778 66.5974 17.3415 64.4581C17.8369 64.1445 18.5697 64.1794 19.1977 64.0958C20.2445 63.9564 21.2913 63.8101 22.345 63.7334C23.4127 63.6568 24.5223 63.4825 25.5551 63.6777C26.7344 63.9007 27.53 63.7613 27.9138 62.5697C28.3465 61.2248 29.0792 59.8659 29.0862 58.514C29.1001 52.8139 30.9843 47.5109 32.2404 42.0685C33.0848 38.4031 33.6082 34.6611 34.2851 30.9608C34.3689 30.5009 34.3898 29.9992 34.5922 29.595C34.7806 29.2257 35.1853 28.9609 35.4924 28.6543C35.7436 28.9957 36.1065 29.3023 36.2251 29.6856C39.184 39.4066 40.8309 49.4063 42.4569 59.399C42.7081 60.953 43.3641 61.7195 44.9482 61.7753C46.4067 61.8241 47.6698 62.2422 48.6537 63.5104C49.4283 64.5139 50.2658 64.2421 50.6635 63.0017C50.8799 62.3328 51.152 61.6359 51.166 60.946C51.2288 57.4967 51.9894 54.1936 52.9874 50.9045C53.2316 50.0962 52.778 49.0788 52.6175 48.1589C51.8499 43.8106 53.413 39.7898 54.2923 35.6506C55.2065 31.3371 55.8346 26.9609 56.5882 22.6056C56.9302 20.6475 57.1954 18.6615 57.6978 16.7452C57.8164 16.2992 58.7515 15.8323 59.3168 15.8323C59.6448 15.8323 60.1682 16.7034 60.2659 17.2399C60.8242 20.2433 61.3475 23.2537 61.7313 26.278C61.9756 28.1874 61.8988 30.1385 62.0733 32.0618C62.2547 34.0896 62.5967 36.1035 62.806 38.1313C63.0224 40.2358 63.1201 42.3473 63.3573 44.4448C63.5667 46.3123 63.9226 48.1589 64.1808 50.0195C64.5018 52.34 64.7949 54.6675 65.095 56.988C65.1438 57.3991 65.0531 57.852 65.1996 58.2144C65.5206 59.0227 65.9114 60.4164 66.3441 60.4373C67.4816 60.507 69.0517 60.73 69.3797 58.8485C69.4216 58.6046 70.1962 58.4304 70.6568 58.3259C72.0594 58.0193 73.4691 57.5803 74.8927 57.5245C77.4608 57.4339 79.9939 56.0542 82.6109 57.2876C82.8411 57.3991 83.218 57.2109 83.525 57.1622C83.4064 56.8695 83.3715 56.4026 83.1621 56.305C81.6478 55.6291 81.7385 54.2981 81.9967 53.1135C83.1133 47.9917 84.4811 42.9117 85.493 37.769C86.128 34.5496 86.3653 31.2465 86.6653 27.9713C86.9514 24.8146 87.0561 21.644 87.3074 18.4873C87.419 17.0309 87.6144 15.5675 87.8935 14.132C88.1657 12.7383 88.6333 11.3864 88.9333 9.99972C89.1845 8.8569 89.2753 7.67226 89.5195 6.52944C89.5893 6.18798 89.9382 5.90228 90.1545 5.5887C90.3988 5.79775 90.7896 5.95802 90.8733 6.21586C92.0736 9.76976 93.4833 13.2749 94.3416 16.9124C95.2837 20.9053 95.6396 25.0376 96.4142 29.0724C96.7352 30.7448 97.4749 32.3336 97.9983 33.8806C99.2056 33.8806 100.643 33.9154 102.074 33.8736C103.337 33.8388 104.007 34.3405 103.86 35.6506C103.721 36.884 104.258 37.3927 105.465 37.3578C108.592 37.2533 111.725 37.1558 114.851 37.0721C115.856 37.0443 116.387 36.6192 116.338 35.553C116.114 30.2013 117.81 25.1003 118.522 19.874C119.066 15.8602 120.029 11.8882 120.957 7.93706C121.439 5.88834 122.144 3.86749 122.967 1.93026C123.302 1.14283 124.188 0.557478 124.914 2.68035e-06C125.026 -0.0905871 125.856 0.383267 125.975 0.724721C126.91 3.42151 127.775 6.1392 128.62 8.86387C129.052 10.2715 129.569 11.6791 129.757 13.1216C130.643 19.9019 131.418 26.6961 132.249 33.4834C132.353 34.3475 132.542 35.2046 132.751 36.4241C131.62 36.3544 130.699 36.2917 129.757 36.229C129.855 34.7865 129.932 33.6576 130.022 32.4451C128.027 31.5044 127.852 30.5288 129.611 28.6055C129.206 28.2989 128.808 27.9923 128.334 27.6299C128.71 27.1003 129.038 26.6334 129.45 26.062C129.045 25.7554 128.648 25.4557 128.124 25.0585C128.543 24.745 128.885 24.4871 128.822 24.5359V21.3025C128.592 21.2329 128.131 21.0935 127.287 20.8357C127.957 20.2712 128.389 19.9019 128.976 19.4002C128.306 18.5779 127.622 17.7347 126.875 16.8149C127.245 16.4943 127.587 16.1947 128.048 15.7975C125.863 12.6895 127.943 8.40395 125.11 5.25421C124.949 7.0451 125.214 9.02414 122.89 9.07292C123.546 9.6513 124.789 10.3481 124.698 10.7175C124.349 12.1251 125.898 14.1181 123.456 14.8567C125.054 16.2086 125.012 18.78 123.197 20.2852C123.658 20.4733 124.091 20.6545 124.523 20.8357C124.461 21.0168 124.398 21.198 124.335 21.3862C123.344 21.6231 122.36 21.86 121.39 22.09C122.234 22.1806 123.358 21.9785 123.958 22.4454C124.607 22.9471 125.131 24.1178 125.047 24.9261C124.963 25.7345 124.056 26.4592 123.56 27.156C123.742 27.1839 124.377 27.2884 124.816 27.3581C124.726 28.4661 124.642 29.4347 124.544 30.5915C123.595 30.6542 122.618 30.7169 121.641 30.7796C121.62 30.8911 121.599 31.0026 121.578 31.1071C122.702 31.3162 123.819 31.5183 124.942 31.7273C124.963 31.8388 124.984 31.9573 124.998 32.0688C123.826 32.5914 122.66 33.1071 121.355 33.6855C122.995 33.8806 124.502 34.0966 126.024 34.229C127.105 34.3196 127.726 34.682 127.461 35.8875C127.182 37.1558 127.908 37.4206 128.955 37.4206C132.674 37.4066 136.401 37.3857 140.12 37.4066C141.586 37.4136 143.051 37.5251 144.635 37.6017C146.499 35.7481 146.485 33.0235 147.182 30.5915C148.704 25.2327 150.106 19.8461 151.544 14.4665C151.753 13.6791 151.83 12.8568 151.998 12.0554C152.535 9.40044 153.03 6.73849 153.679 4.11835C153.798 3.63056 154.684 2.89888 155.005 2.98947C155.703 3.19155 156.575 3.73509 156.82 4.36225C158.048 7.48411 159.555 10.599 160.12 13.8602C161.446 21.4558 162.319 29.1351 163.303 36.7934C163.442 37.8735 163.142 39.0024 163.107 40.1104C163.086 40.9814 163.01 41.9013 163.233 42.7235C164.287 46.591 165.396 50.4516 166.555 54.2912C167.19 56.4026 169.22 57.3782 171.377 57.0019C172.333 56.8347 173.484 56.9043 174.349 57.3015C176.736 58.3956 179.018 59.7196 181.474 61.0227C182.354 58.3398 183.359 55.664 184.091 52.9184C184.789 50.3052 185.264 47.6293 185.703 44.9604C186.178 42.1243 187.315 39.0721 186.701 36.4519C185.759 32.4242 187.629 29.2187 188.237 25.6509C188.592 23.5673 188.46 21.4071 188.718 19.3026C188.92 17.679 189.276 16.0483 189.772 14.4874C190.03 13.6651 190.742 12.9892 191.447 11.9509C197.288 28.8145 198.181 45.9987 199.535 62.8693C204.392 63.4059 209.06 63.9146 213.861 64.4442C213.91 63.8588 213.931 63.3362 214.001 62.8275C214.413 59.7405 214.545 56.5838 215.341 53.5943C216.122 50.6815 216.799 47.8454 216.876 44.7932C216.96 41.5737 217.853 38.3683 217.818 35.1628C217.79 32.1454 219.102 29.7065 220.1 27.0864C220.268 26.6404 220.428 26.2014 220.596 25.7554C220.875 25.9157 221.154 26.0759 221.44 26.2362C221.712 27.2884 221.817 28.4173 222.277 29.3859C224.518 34.1384 224.901 39.2393 225.327 44.3542C225.557 47.1067 226.192 49.8244 226.562 52.57C226.806 54.3748 226.862 56.2145 227.107 58.0193C227.274 59.2457 227.651 60.4443 227.853 61.6707C227.909 62.0052 227.686 62.4024 227.56 62.7578C226.897 64.5487 227.735 66.3954 229.584 66.7647C231.775 67.2037 234.008 67.5103 236.234 67.6915C241.022 68.0817 244.406 70.451 246.974 74.4509C248.056 76.1303 248.154 77.733 247.812 79.4542C247.644 80.2695 247.002 81.0221 246.472 81.7259C245.879 82.5134 245.16 83.2032 244.127 83.8652C244.218 83.0151 244.308 82.165 244.441 80.8897C243.031 82.1859 241.852 83.2729 240.673 84.36C240.533 84.3252 240.387 84.2903 240.247 84.2555C240.568 83.2729 240.896 82.2973 241.377 80.827C240.079 81.9211 239.068 82.7712 238.049 83.6283C237.909 83.5796 237.763 83.5238 237.623 83.475C237.867 82.5691 238.105 81.6563 238.391 80.5831C236.088 80.6249 235.453 82.8827 233.931 83.8443L233.443 83.6074C233.904 82.4785 234.371 81.3496 234.832 80.2208C234.762 80.1232 234.692 80.0256 234.622 79.9351C233.973 80.4368 233.303 80.9106 232.682 81.4402C232.375 81.705 232.201 82.1719 231.866 82.3531C231.203 82.7085 230.47 82.9315 229.765 83.2102C230.1 82.6388 230.442 82.0674 230.756 81.489C231.056 80.9455 231.329 80.395 231.608 79.8445C231.482 79.6912 231.349 79.5378 231.224 79.3845C229.842 80.2208 228.46 81.057 226.939 81.9768C226.827 81.3636 226.744 80.8897 226.597 80.1023C225.62 80.8479 224.769 81.496 223.61 82.381C223.666 81.4472 223.708 80.7852 223.743 80.1859C221.859 80.7504 219.94 81.3287 217.714 81.9977C218.014 81.0918 218.181 80.5692 218.46 79.726C217.476 80.1999 216.723 80.5692 215.801 81.0082C215.676 80.4647 215.557 79.956 215.369 79.1337C214.287 79.9978 213.338 80.7573 212.389 81.5169C212.263 81.4472 212.138 81.3845 212.019 81.3148C212.173 80.604 212.326 79.9002 212.584 78.7016C211.559 79.5727 210.875 80.1511 210.016 80.8828C209.793 80.2695 209.612 79.7748 209.36 79.0849C208.865 79.4751 208.439 79.8514 207.972 80.165C207.42 80.5413 206.834 80.8688 206.262 81.2172C206.053 80.6598 205.843 80.1093 205.592 79.4194C204.936 79.9699 204.287 80.5065 203.422 81.2382C203.471 80.3392 203.498 79.7399 203.547 78.8758C202.528 79.5518 201.726 80.0884 200.7 80.7713V78.5065C199.667 79.4124 198.928 80.0675 197.846 81.0152C197.958 79.9629 198.041 79.2243 198.181 77.8863C196.694 78.7853 195.508 79.503 194.21 80.2904C194.071 80.0396 193.875 79.6772 193.561 79.0988C192.717 79.6702 191.886 80.2347 191.063 80.7991C190.916 80.7225 190.763 80.6389 190.616 80.5622C191.021 79.6493 191.426 78.7434 191.824 77.8306C191.754 77.747 191.684 77.6703 191.614 77.5867C191.182 78.0257 190.756 78.4647 190.323 78.8968C190.037 79.1894 189.793 79.5797 189.444 79.7539C188.983 79.9838 188.439 80.0396 187.93 80.172C188.069 79.719 188.202 79.2591 188.341 78.8062C188.411 78.5901 188.502 78.3881 188.341 77.7679C187.336 78.2138 186.338 78.6598 185.173 79.1755C184.992 78.9386 184.699 78.5553 184.224 77.9421C183.324 78.632 182.431 79.3149 181.279 80.1998C181.195 79.4403 181.119 78.7365 181.035 77.9839C180.442 78.3532 179.869 78.7156 179.172 79.1546C178.934 78.5901 178.746 78.1302 178.474 77.4752C177.581 78.0118 176.722 78.5274 175.389 79.3218C175.738 78.1929 175.948 77.524 176.157 76.862C176.087 76.7017 176.017 76.5414 175.948 76.3811C174.726 76.9386 173.498 77.4891 172.151 78.1023C171.991 77.6564 171.788 77.085 171.53 76.3533C170.763 76.6738 170.037 77.0571 169.262 77.2801C168.725 77.4334 168.111 77.3149 167.546 77.4264C166.736 77.5867 165.94 77.8375 164.922 78.1093C164.845 77.7818 164.74 77.3498 164.566 76.6459C163.575 77.3567 162.661 78.0118 161.746 78.6668C161.788 78.8828 161.837 79.1058 161.879 79.3218C162.633 79.3218 163.379 79.3218 164.133 79.3218C165.033 79.3149 165.947 79.1755 166.827 79.294C170.728 79.8375 174.601 80.6389 178.523 81.0012C185.278 81.6284 192.054 82.0186 198.823 82.4646C205.655 82.9106 212.487 83.3008 219.319 83.705C221.321 83.8234 223.352 83.7816 225.334 84.0534C226.318 84.1928 227.183 85.1056 228.167 85.2868C232.64 86.0882 237.135 86.7641 241.622 87.447C242.948 87.6491 244.287 87.7397 245.718 88.2136C245.076 88.4714 244.434 88.7292 243.576 89.0777C245.544 89.9696 244.685 90.6386 243.597 91.2588C243.031 91.5793 242.459 91.8999 241.873 92.1647C239.486 93.2517 239.486 93.2448 237.644 91.1612C237.553 91.0567 237.33 91.0706 237.009 90.98C236.855 91.5236 236.716 92.0323 236.534 92.7082C235.341 91.7884 234.678 89.0219 233.059 91.0846H227.853C226.96 90.6943 225.683 90.1299 224.406 89.5724C224.469 89.3982 224.538 89.217 224.601 89.0428C221.028 88.4923 217.455 87.9348 213.889 87.3843C213.841 87.6422 213.785 87.907 213.736 88.1648C214.866 88.4853 216.018 88.7501 217.127 89.1404C219.619 90.0184 222.068 90.994 224.559 91.872C227.218 92.8058 229.898 93.6768 232.571 94.5688C233.75 94.959 234.943 95.2935 236.116 95.6977C237.19 96.06 237.337 96.7708 236.632 97.5931C235.055 99.4049 233.471 101.21 231.831 102.959C230.421 104.464 228.956 105.913 227.455 107.328C227.107 107.662 226.52 107.746 226.046 107.948C226.22 107.46 226.262 106.833 226.59 106.513C228.893 104.304 231.315 102.22 233.562 99.9554C234.218 99.2934 234.825 98.1227 234.699 97.3004C234.608 96.729 233.269 96.2551 232.41 95.9276C229.549 94.8406 226.653 93.8371 223.771 92.7988C221.67 92.0392 219.584 91.2379 217.469 90.5201C216.074 90.0463 214.657 89.6212 213.226 89.3076C209.318 88.4505 205.411 87.6003 201.482 86.8617C197.504 86.1091 193.512 85.4471 189.507 84.8339C186.485 84.3739 183.428 84.1161 180.407 83.6423C177.218 83.1405 174.07 82.374 170.874 81.9211C166.862 81.3496 162.821 80.9803 158.788 80.5274C158.32 80.4716 157.845 80.4786 157.378 80.4089C152.849 79.733 148.313 79.0431 143.784 78.3532C143.554 78.3184 143.323 78.2557 142.967 78.179V73.6425C145.054 73.6425 147.217 73.315 149.234 73.7053C154.161 74.653 159.004 73.3638 163.889 73.4823C164.859 73.5032 165.229 72.9109 164.754 72.0886C163.533 69.9562 163.686 67.6776 163.791 65.364C163.875 63.4825 163.84 61.5802 163.672 59.7057C163.631 59.2248 162.898 58.4165 162.472 58.4095C159.799 58.3956 157.134 58.5768 154.461 58.6604C154.07 58.6743 153.658 58.5071 153.275 58.3816C151.111 57.6709 150.693 57.7336 149.039 59.1064C147.915 57.197 146.519 57.1273 144.9 58.535C144.726 58.6883 144.175 58.6464 143.979 58.4862C142.828 57.5454 141.809 57.1691 141.195 58.9879C139.139 57.5524 137.601 57.5431 136.582 58.96C135.361 57.852 134.07 56.1936 132.639 58.9112C131.376 57.4479 130.12 56.8765 128.927 58.8625C127.482 57.9496 126.087 56.2423 124.628 58.8067C123.414 57.4757 122.193 56.5908 120.943 58.8067C119.897 57.7963 118.885 56.9601 117.608 58.2911C117.489 58.4095 116.889 58.2771 116.694 58.082C115.41 56.7789 114.307 57.1622 113.246 58.4792C112.109 57.7057 111.006 56.6117 109.729 58.1935C109.617 58.3329 108.975 58.2841 108.815 58.1099C107.482 56.6465 106.393 57.0925 105.388 58.6534C104.293 57.4827 103.204 56.4305 102.185 58.7022C101.013 57.6709 99.8895 56.5629 98.6543 58.4653C97.3214 57.2179 96.0304 56.5489 94.7115 58.3607C93.5391 57.8381 92.5272 55.4688 91.3339 57.9775C90.2523 57.3085 89.3102 56.7232 88.1448 55.9984C87.9494 56.9322 87.8377 57.4688 87.6633 58.298C86.9724 57.7475 86.4211 57.3085 85.6255 56.6744C85.5558 57.4688 85.465 58.1656 85.4511 58.8555C85.3813 61.622 85.3394 64.3885 85.2906 67.1549C85.2836 67.6288 85.2906 68.1026 85.3394 68.5695C85.6255 71.2384 86.2117 71.8865 88.8845 71.9004C94.2579 71.9353 99.6383 71.8516 105.012 71.8168C105.361 71.8168 105.71 71.8168 106.226 71.8168C105.619 72.9248 105.088 73.9073 104.621 74.7645C103.888 74.6669 103.204 74.5554 102.513 74.5206C102.471 74.5206 102.262 75.3359 102.36 75.3847C102.995 75.754 103.693 76.0257 104.733 76.4857C106.01 78.9595 106.617 79.1964 108.599 77.747C109.883 78.2626 111.076 78.7434 112.604 79.3567C113.546 78.8619 114.823 78.186 116.317 77.3985C117.189 78.3462 118.459 79.4821 119.82 77.8724C120.895 78.1581 121.781 78.3881 122.646 78.618C123.477 76.3742 122.248 74.0188 123.518 72.1722C123.749 72.2001 123.979 72.2279 124.209 72.2628C124.209 73.7749 124.237 75.2801 124.202 76.7923C124.161 78.7016 124.635 79.2452 126.729 79.5448C126.777 78.8898 126.833 78.2347 126.889 77.4891C128.215 77.9281 129.492 78.3462 130.762 78.7644C130.818 78.6459 130.881 78.5344 130.937 78.4159C131.188 78.9316 131.439 79.4473 131.683 79.949C132.891 79.7051 136.45 81.7817 136.631 82.8688C137.971 82.6806 139.318 82.5064 140.651 82.2973C141.872 82.1022 142.409 81.2939 142.674 80.1371C142.765 79.7539 143.281 79.4682 143.595 79.1337C143.882 79.503 144.175 79.8654 144.593 80.4019C146.303 78.7365 147.957 80.2417 149.813 81.1267C149.499 81.6841 149.143 82.3183 148.787 82.9524C148.864 83.0639 148.934 83.1684 149.011 83.2799C150.071 82.6806 151.132 82.0883 152.326 81.4193C154.07 83.036 156.094 81.9141 158.341 81.3218C157.95 82.2764 157.72 82.8409 157.49 83.4053C157.559 83.482 157.629 83.5656 157.699 83.6423C158.522 83.0639 159.346 82.4925 160.407 81.7468C160.483 82.3183 160.546 82.7712 160.623 83.3496C162.158 83.5726 163.812 83.8095 165.71 84.0813C165.117 85.1684 164.468 86.353 163.826 87.5307C163.7 87.3495 163.568 87.1613 163.442 86.9801C164.845 86.0464 166.227 85.0847 167.65 84.1928C168.083 83.921 168.634 83.8304 169.13 83.6492C168.871 84.0743 168.648 84.5203 168.355 84.9175C168.034 85.3495 167.65 85.7328 167.406 86.3181C168.83 84.2346 170.693 86.4018 172.396 85.8304C171.963 86.4505 171.537 87.0638 171.042 87.7746C172.054 87.231 172.94 86.7432 174.147 86.0952C174.049 86.8826 174.001 87.2868 173.945 87.7606C174.998 87.684 176.059 87.6909 177.078 87.4958C177.469 87.4192 177.741 86.8477 178.111 86.5551C178.837 85.9837 179.583 85.3217 179.862 86.9592C179.911 87.2519 180.407 87.4749 180.679 87.7118C179.772 89.1682 178.927 90.534 178.083 91.8929C178.209 91.9905 178.341 92.088 178.467 92.1926C180.463 90.318 182.458 88.4366 184.461 86.562L184.936 86.9941C184.182 88.0045 183.428 89.0219 182.682 90.0323L182.891 90.2344C184.496 89.5236 186.101 88.8059 187.867 88.0254C187.643 89.9348 186.659 90.6386 185.236 90.8685C183.708 91.1124 183.093 92.4155 182.661 94.2343C183.442 93.5862 183.91 93.196 184.629 92.5967C184.782 93.5444 184.901 94.2901 185.096 95.5026C186.29 92.6107 187.706 90.4156 190.281 89.1334C189.046 91.1264 187.155 92.7779 187.12 95.7534C187.992 94.3179 188.544 93.189 189.297 92.2135C190.763 90.2971 192.738 89.0777 195.096 88.555C195.515 88.4644 196.011 88.7014 196.471 88.7919C196.213 89.1264 196.025 89.6142 195.683 89.7815C192.668 91.2239 192.431 94.4155 190.867 96.7708C191.042 96.8893 191.209 97.0008 191.384 97.1192C192.096 95.8928 192.703 94.5897 193.561 93.4678C194.413 92.3528 195.515 91.426 196.506 90.4156C196.708 90.5828 196.911 90.757 197.113 90.9243C196.025 92.3877 194.929 93.858 193.84 95.3214C193.952 95.412 194.071 95.5026 194.182 95.6001C196.08 94.0531 197.099 91.2866 199.653 91.0776C198.327 92.2762 196.841 93.6281 195.348 94.9799C195.62 95.2796 195.899 95.5792 196.171 95.8789L198.697 94.0113C198.83 94.1158 198.962 94.2204 199.095 94.3249C198.439 96.06 196.018 97.2934 197.497 100.137C198.209 98.6732 198.648 97.5095 199.304 96.4851C200.267 94.973 201.307 93.4887 202.473 92.1298C203.08 91.426 203.924 91.0985 204.524 92.4225C204.81 93.0566 205.508 93.5026 206.22 94.2413C207.023 94.1158 208.111 93.9416 209.409 93.7326C208.209 96.4224 207.002 99.1192 205.794 101.816L206.443 102.199C207.748 98.5129 210.728 96.4433 213.352 94.0322C213.54 94.1925 213.729 94.3458 213.924 94.5061C213.499 95.0635 213.066 95.621 212.647 96.1855C211.252 98.0669 209.8 99.9066 208.523 101.865C208.223 102.318 208.251 103.488 208.593 103.76C209.409 104.415 210.295 104.346 211.231 103.461C213.485 101.328 215.906 99.3631 218.293 97.3771C218.67 97.0635 219.228 96.9729 219.702 96.7778C219.8 96.9311 219.891 97.0914 219.989 97.2447C219.486 97.6697 218.984 98.0809 218.481 98.5129C216.646 100.088 214.762 101.607 213.017 103.279C212.612 103.663 212.354 104.903 212.612 105.154C213.492 106.004 213.973 105.175 214.455 104.422C216.283 101.572 218.684 99.3561 221.831 98.0042C222.152 97.8649 222.487 97.7673 222.829 97.6767C222.912 97.6558 223.031 97.7673 223.401 97.9555C220.365 100.374 216.723 102.185 215.92 106.387C219.409 103.976 221.496 99.9275 225.697 98.1784C225.92 98.6662 226.095 99.0495 226.276 99.4258C227.086 99.1401 227.811 98.8892 228.544 98.6314C228.621 98.7777 228.698 98.9241 228.774 99.0774C228.46 99.3561 228.146 99.6279 227.839 99.9066C225.802 101.746 223.701 103.53 221.768 105.474C221.321 105.927 221.433 106.931 221.287 107.683C221.943 107.356 222.766 107.182 223.22 106.68C225.683 103.983 227.804 100.952 231.07 99.0843C231.475 98.8474 231.88 98.5965 232.292 98.3805C232.361 98.3457 232.508 98.4363 232.794 98.5199C232.571 98.8683 232.41 99.2028 232.173 99.4606C229.479 102.339 226.772 105.21 224.057 108.067C223.785 108.352 223.436 108.777 223.122 108.777C221.608 108.77 220.533 109.154 220.212 110.875C220.163 111.147 218.788 111.042 218.551 111.432C216.771 114.366 214.476 112.408 212.459 112.067C210.7 111.767 209.011 110.561 207.302 110.568C205.257 110.568 203.966 108.757 201.817 109.244C202.187 107.899 203.191 106.457 200.686 106.854C199.939 106.973 199.172 105.133 198.272 106.373C197.323 105.893 196.513 105.258 195.599 105.063C194.433 104.812 192.933 105.523 192.445 103.704C192.424 103.628 192.242 103.537 192.145 103.551C188.697 103.969 186.869 100.931 184.133 99.8578C182.779 99.3282 181.258 99.2307 179.855 98.8056C177.713 98.1645 175.613 97.398 173.491 96.7011C173.024 96.5478 172.528 96.4921 172.054 96.3945L171.823 96.8475C172.661 97.4398 173.442 98.1297 174.343 98.5965C175.808 99.3561 177.315 100.06 178.872 100.617C179.597 100.875 180.477 100.729 181.419 100.778C181.419 100.778 181.307 101.14 181.188 101.537C187.497 105.196 193.819 108.854 200.609 112.798C198.432 112.84 196.932 112.108 195.417 111.537C194.713 111.272 194.147 110.659 193.449 110.359C192.905 110.129 192.263 110.115 191.656 110.039C190.686 109.92 189.716 109.823 188.746 109.718C188.732 109.523 188.711 109.328 188.697 109.133C189.095 108.812 189.493 108.492 190.037 108.053C187.427 107.203 185.983 103.398 182.277 106.025C182.277 105.837 182.277 105.656 182.277 105.467C182.521 105.008 182.759 104.548 183.045 103.997C180.093 102.645 177.155 101.314 174.231 99.9624C173.7 99.7185 173.1 99.5024 172.689 99.1122C169.29 95.844 164.524 95.0635 160.721 92.527C159.653 91.8162 157.043 92.8336 155.229 94.3319C155.71 94.4364 156.115 94.527 156.603 94.6315C156.485 94.8893 156.464 95.1054 156.352 95.182C155.424 95.8092 154.44 96.3597 153.568 97.0496C153.323 97.2447 153.386 97.837 153.309 98.2481C153.714 98.2133 154.21 98.3178 154.496 98.1157C155.361 97.5095 156.059 96.5896 156.987 96.1576C157.797 95.7743 158.829 95.844 159.772 95.7813C160.539 95.7255 161.321 95.7674 162.284 96.0879L156.701 100.164C156.813 100.311 156.924 100.457 157.029 100.603C158.606 99.6 160.155 98.5478 161.774 97.607C165.236 95.5932 165.689 95.5444 166.492 96.7569C163.631 97.9067 160.818 99.1471 158.704 101.447C158.808 101.621 158.913 101.802 159.018 101.976C159.785 101.509 160.518 100.966 161.328 100.583C163.4 99.6 165.487 98.6314 167.615 97.7743C168.167 97.5513 168.885 97.7394 169.513 97.9694C166.289 99.607 162.465 99.9693 160.288 103.844C162.214 102.645 163.77 101.6 165.403 100.687C166.785 99.9136 168.125 99.1401 169.813 100.408C170.344 100.806 171.628 100.192 172.689 100.276C169.855 102.61 165.717 103.07 163.645 106.436C166.966 104.624 170.358 103.112 174.035 102.366C174.119 102.555 174.21 102.736 174.294 102.924C172.842 103.558 171.356 104.123 169.953 104.847C168.495 105.6 167.085 106.443 165.738 107.377C165.438 107.586 165.494 108.311 165.389 108.798C165.829 108.715 166.331 108.736 166.694 108.52C169.409 106.854 172.047 105.063 174.803 103.474C175.724 102.945 176.925 102.875 178.09 102.882C174.496 105.356 170.107 106.527 167.483 110.297C171.439 109.76 174.008 106.116 178.271 105.307C178.02 105.941 177.999 106.227 177.86 106.311C175.752 107.586 173.617 108.812 171.502 110.088C170.797 110.513 170.1 110.966 169.499 111.523C169.241 111.76 169.255 112.29 169.144 112.687C169.59 112.645 170.107 112.742 170.469 112.54C173.086 111.091 175.647 109.551 178.271 108.115C178.816 107.816 179.535 107.837 180.316 108.018C177.134 110.15 173.275 111.265 170.86 115.077C174.971 113.411 177.936 110.15 182.117 109.753C182.228 109.969 182.333 110.178 182.444 110.394C180.777 111.3 179.088 112.178 177.448 113.133C175.857 114.06 174.315 115.063 172.549 116.164C173.7 116.721 174.391 117.056 175.061 117.383C174.58 118.408 174.119 119.383 173.463 120.777C173.003 120.624 172.354 120.31 171.677 120.227C170.972 120.136 170.232 120.275 169.165 120.331C168.997 119.732 168.725 118.735 168.446 117.739C168.271 117.732 168.097 117.725 167.922 117.718C167.706 118.84 167.49 119.969 167.252 121.195C166.038 120.638 166.98 117.021 164.049 119.342C163.966 118.701 164.021 118.087 163.791 117.627C163.365 116.777 162.87 115.906 162.207 115.251C161.056 114.115 159.541 113.453 158.774 111.809C158.264 110.722 157.078 109.962 156.192 109.049C155.103 107.92 154.049 106.75 152.898 105.676C152.535 105.335 151.935 105.251 151.251 104.973C150.979 104.227 150.623 103.251 150.211 102.13C149.653 102.415 149.283 102.603 149.143 102.673C148.257 101.077 147.434 99.5861 146.533 97.9624C146.143 98.2133 145.787 98.4432 145.075 98.9032C144.272 96.5687 143.526 94.3806 142.695 91.9347C142.444 93.1124 142.256 93.9974 142.067 94.8824C141.879 94.8824 141.683 94.8824 141.495 94.8824C141.251 94.074 141.006 93.2587 140.825 92.6664C140.364 92.6664 139.764 92.8476 139.541 92.6385C138.083 91.2657 136.736 89.7745 135.277 88.4017C135.061 88.1996 134.461 88.4087 134.07 88.4296C133.344 86.8059 132.632 85.2171 131.886 83.5377C131.634 83.8443 131.334 84.2137 130.846 84.813C130.302 83.1963 130.546 81.1476 127.761 81.1336C128.445 81.7678 128.878 82.1649 129.415 82.6667C128.997 82.9315 128.571 83.1893 127.978 83.5586C128.69 83.7816 129.248 83.9489 130.448 84.3252C129.736 84.7851 129.366 85.022 129.143 85.1614C129.506 85.5098 129.96 85.9418 130.413 86.3739C130.329 86.4924 130.239 86.6108 130.155 86.7293C130.609 86.785 131.069 86.8477 131.907 86.9523C130.944 87.5237 130.267 87.9209 129.59 88.3181C129.618 88.4366 129.646 88.555 129.673 88.6735H132.849C132.179 89.3076 131.83 89.6421 131.334 90.102C131.816 90.2832 132.2 90.4295 132.653 90.6037C131.928 91.1403 131.299 91.6002 130.678 92.0601C130.769 92.1507 130.867 92.2483 130.958 92.3389C132.137 92.2065 133.386 91.7744 134.461 92.0532C135.138 92.2274 135.542 93.4608 136.066 94.2204C135.947 94.304 135.835 94.3806 135.717 94.4643C136.477 94.6594 137.238 94.8545 138.006 95.0426C137.985 95.2099 137.964 95.3771 137.943 95.5444H132.96C132.925 95.7952 132.898 96.0531 132.863 96.3039C134.886 96.5827 136.903 96.8544 138.927 97.1332C138.927 97.2586 138.927 97.384 138.927 97.5095C137.58 97.6628 136.233 97.8161 134.886 97.9764C134.886 98.1088 134.879 98.2411 134.872 98.3805L138.264 98.708C138.264 98.8613 138.264 99.0077 138.264 99.161C137.05 99.3491 135.828 99.5373 134.614 99.7254C134.593 99.8857 134.579 100.046 134.558 100.213C136.826 100.513 139.101 100.813 141.369 101.119L141.334 101.788C140.392 101.788 139.443 101.788 138.501 101.788C137.447 101.788 136.401 101.788 135.096 101.788C135.884 103.816 137.517 102.826 138.634 103.098C139.925 103.412 141.307 103.384 142.646 103.502C142.66 103.67 142.674 103.837 142.688 104.004C141.676 104.074 140.658 104.185 139.646 104.206C139.178 104.22 138.704 103.969 138.25 104.011C137.671 104.06 137.106 104.283 136.533 104.436C137.008 104.945 137.427 105.809 137.978 105.899C140.19 106.269 142.437 106.401 144.67 106.638C145.096 106.68 145.515 106.798 145.926 107.307C145.11 107.307 144.293 107.307 143.477 107.307C141.997 107.293 140.525 107.23 139.046 107.272C138.732 107.279 138.173 107.642 138.173 107.844C138.173 108.171 138.466 108.673 138.759 108.798C139.401 109.063 140.12 109.189 140.818 109.265C143.679 109.565 146.54 109.83 149.395 110.331C146.129 111.725 142.821 109.53 139.562 110.471C139.904 113.028 140.665 113.753 143.121 113.774C145.689 113.795 148.264 113.774 150.832 113.774C150.832 114.053 150.839 114.324 150.846 114.603H141.774C141.746 116.436 142.2 117.39 143.923 117.377C146.582 117.363 149.248 117.39 151.907 117.432C152.605 117.446 153.296 117.586 153.993 117.669C153.993 117.85 153.993 118.032 154 118.213H143.302C143.226 120.185 143.812 121.049 145.508 121.063C148.641 121.084 151.774 121.167 154.908 121.258C155.759 121.286 156.603 121.432 157.448 121.53C157.434 121.69 157.42 121.843 157.406 122.004C155.354 122.004 153.296 121.99 151.244 122.004C149.709 122.018 148.159 121.99 146.631 122.115C143.149 122.394 143.044 122.366 141.586 119.112C140.532 116.763 139.799 116.408 137.161 116.61C136.101 116.687 135.019 116.464 133.951 116.38L133.937 115.6H139.38C139.415 115.404 139.443 115.209 139.478 115.014C139.032 114.722 138.585 114.422 138.096 114.101C139.108 112.478 137.985 111.126 137.517 109.683C136.994 108.06 136.247 106.715 133.895 107.467C133.826 107.189 133.749 106.91 133.679 106.624C134.272 106.325 134.865 106.018 135.228 105.837C131.676 97.4119 128.194 89.1473 124.712 80.8758C124.537 80.9385 124.363 80.9943 124.188 81.057C124.37 81.935 124.551 82.82 124.754 83.8304C124.188 83.9558 123.588 84.0882 122.863 84.2485C123.135 84.6318 123.337 84.9175 123.798 85.5725C122.269 85.7955 120.999 85.9837 119.722 86.1718C119.722 86.2972 119.722 86.4227 119.722 86.5481H125.34C125.354 86.8129 125.375 87.0777 125.389 87.3425C122.932 87.6143 120.483 87.886 118.026 88.1578L118.082 88.5132H125.124L125.158 88.9383C121.397 89.5933 117.643 90.2553 113.881 90.9104C113.902 91.0149 113.923 91.1264 113.951 91.2309C118.264 90.7431 122.583 90.2623 126.896 89.7745C126.945 90.0811 126.994 90.3877 127.05 90.6943C122.402 92.102 117.001 90.2414 112.939 93.628C114.949 93.3423 117.105 92.9103 119.276 92.757C121.425 92.6037 123.665 92.0044 125.738 93.3632C121.02 93.6629 116.296 93.7744 111.851 95.5095C111.864 95.6628 111.871 95.8231 111.885 95.9764C113.386 95.7952 114.879 95.621 116.38 95.4259C118.013 95.2099 119.638 94.9311 121.278 94.7709C122.8 94.6245 124.391 94.1019 125.842 95.5583C121.669 95.9973 117.489 96.4363 113.316 96.8753C113.33 97.0565 113.344 97.2377 113.358 97.4189C118.187 97.5861 123.037 95.9485 127.873 97.4468C122.221 98.1436 116.407 97.4955 110.971 99.9484C112.834 99.7951 114.698 99.6558 116.554 99.4955C118.557 99.3282 120.56 99.0704 122.562 98.9798C124.482 98.8892 126.408 98.9589 128.341 99.3213C121.655 100.624 114.733 99.9624 108.194 102.248C114.153 102.053 120.12 101.865 126.08 101.67C126.107 101.997 126.142 102.332 126.17 102.659C124.621 102.799 123.079 103.022 121.53 103.056C119.115 103.105 116.694 102.847 114.3 103.049C112.206 103.224 110.148 103.823 108.089 104.29C107.754 104.366 107.475 104.708 107.224 105.084C114.349 103.718 121.425 104.032 128.536 105.237C127.371 105.398 126.198 105.565 124.677 105.774C127.036 106.136 129.024 106.443 131.013 106.75C130.999 106.966 130.985 107.175 130.971 107.391H116.079C116.079 107.607 116.079 107.816 116.079 108.032H125.354C125.382 108.213 125.41 108.401 125.438 108.582C124.719 108.798 123.993 109.014 123.274 109.23C123.274 109.335 123.26 109.446 123.26 109.551C125.033 109.69 126.805 109.823 128.585 109.962C128.585 110.171 128.585 110.38 128.578 110.589C121.076 110.84 113.532 110.638 106.17 112.499C113.49 111.899 120.804 111.746 128.459 112.213C128.054 112.68 127.957 112.889 127.852 112.896C124.551 112.986 121.244 112.993 117.95 113.154C115.13 113.286 112.318 113.593 109.499 113.83C108.508 113.913 107.496 113.899 106.533 114.115C105.716 114.303 104.97 114.77 104.244 115.411C111.823 114.568 119.345 113.711 126.889 115.244C120.008 115.809 113.065 115.558 106.296 117.244C113.679 116.694 121.041 116.241 128.396 117.181C128.417 117.37 128.438 117.565 128.459 117.753C127.943 117.864 127.426 118.052 126.903 118.073C123.888 118.192 120.867 118.185 117.859 118.38C113.107 118.687 108.347 119.042 103.609 119.558C102.081 119.725 100.615 120.464 99.1498 121.139C108.012 120.582 116.826 118.819 125.717 119.997C125.717 120.157 125.731 120.317 125.738 120.477C119.262 120.979 112.786 121.481 106.31 121.983C106.31 122.157 106.31 122.324 106.31 122.498C111.564 122.902 116.819 123.307 122.081 123.704C122.095 123.892 122.109 124.073 122.116 124.261C121.237 124.401 120.35 124.693 119.485 124.652C116.359 124.512 113.246 124.213 110.12 124.059C107.084 123.906 104.028 123.167 101.062 124.645C100.245 125.049 99.1637 124.93 97.9774 125.077C98.1309 124.317 98.2216 123.892 98.3054 123.467C96.4282 123.348 96.0443 122.596 96.9515 120.847C99.4917 115.927 102.171 111.07 104.572 106.088C107.775 99.4467 110.755 92.7082 113.853 86.0255C114.495 84.6387 115.305 83.3217 115.919 81.9211C116.163 81.3636 116.072 80.6667 116.17 79.7121C113.818 82.2068 111.781 84.367 109.624 86.6457C109.499 86.346 109.269 85.8094 108.857 84.8269C108.445 86.2485 108.131 87.3495 107.761 88.6247C107.259 88.3042 106.847 88.0394 106.296 87.6909C106.163 87.9906 106.003 88.2763 105.898 88.5759C105.465 89.8372 105.626 90.8894 107.622 91.5863C106.352 91.8511 105.661 91.9905 104.893 92.1507C104.691 91.3842 104.516 90.7431 104.349 90.102C104.216 90.102 104.084 90.095 103.951 90.0881C103.749 91.0985 103.546 92.1089 103.26 93.5165C102.723 92.7221 102.395 92.2413 101.892 91.5027C101.669 92.4782 101.508 93.1821 101.306 94.081H106.798C106.812 94.2273 106.833 94.3667 106.847 94.513C104.733 94.8963 102.618 95.2726 100.308 95.6907C100.155 95.196 99.9523 94.5618 99.7569 93.9277C99.5894 93.9137 99.4289 93.8928 99.2614 93.8789C99.1637 94.8754 98.8497 95.9207 99.059 96.8544C99.1428 97.2516 100.294 97.5722 100.985 97.6349C102.297 97.7603 103.63 97.6697 104.956 97.6697C104.963 97.8579 104.97 98.0391 104.977 98.2272C102.611 98.4432 100.238 98.6314 97.8797 98.8962C97.4959 98.938 97.1469 99.3282 96.7771 99.5512C97.1958 99.7603 97.6005 100.123 98.0332 100.144C99.4638 100.22 100.908 100.171 102.339 100.171C102.353 100.36 102.36 100.548 102.374 100.736C100.518 100.952 98.6543 101.342 96.805 101.3C96.17 101.286 95.5559 100.206 94.7603 99.4467C93.4344 100.164 94.3905 101.753 93.9438 102.952C93.4833 103.168 92.7924 103.279 92.4923 103.677C91.948 104.394 91.641 105.279 91.2362 106.102C91.941 106.297 92.6319 106.575 93.3507 106.666C95.1651 106.889 96.9934 107.021 98.8636 107.384C98.4659 107.474 98.0681 107.635 97.6703 107.642C95.1372 107.697 92.597 107.656 90.0638 107.802C89.5893 107.83 89.1497 108.534 88.6961 108.924C89.1357 109.342 89.5474 110.094 90.015 110.129C91.948 110.269 93.895 110.185 95.842 110.185C95.8629 110.345 95.8838 110.499 95.9048 110.659C95.2139 110.777 94.523 110.966 93.8252 110.993C92.3528 111.056 90.8664 111.147 89.4148 110.993C88.6402 110.91 87.9215 110.331 86.9166 109.851C86.8119 109.934 86.3443 110.15 86.1559 110.506C85.6535 111.46 85.3534 112.415 84.0694 112.819C83.5809 112.972 83.4552 114.276 82.9807 115.516H91.2781C91.2781 115.725 91.2641 115.927 91.2571 116.136H81.2919C81.1733 116.589 80.936 117.502 80.7197 118.331C79.7078 118.742 78.7239 119.146 77.6631 119.579C77.37 118.833 77.077 118.08 76.721 117.174C75.9255 117.641 75.3393 117.983 74.9206 118.227C74.146 117.725 73.497 117.3 72.848 116.882C72.7573 116.993 72.6735 117.112 72.5828 117.223C72.2758 116.415 71.9757 115.607 71.5849 114.568C75.3533 110.492 79.3659 106.485 83.9507 103.049C86.0722 101.454 88.061 99.6767 90.0917 97.9555C94.2788 94.4225 98.4449 90.8755 102.96 87.0498C100.301 86.353 97.9216 85.7189 95.5419 85.0917C95.4721 85.2729 95.4023 85.461 95.3326 85.6422C96.7492 86.4157 98.1658 87.1822 99.5894 87.9557L99.387 88.3878C98.4938 88.0742 97.6075 87.7606 96.6585 87.4261C96.2607 88.3181 97.3982 89.6421 95.7443 89.7815C95.4931 87.907 94.23 87.5585 92.4156 87.6212C92.7087 87.9348 92.8343 88.1439 93.0157 88.2484C93.9299 88.7571 94.858 89.2449 95.7792 89.7397L95.7094 89.656ZM16.4692 76.9247C17.4671 78.9107 18.465 80.8967 19.4699 82.8897C17.2158 82.1719 16.3296 80.2904 15.1991 78.618C14.8502 78.1023 14.2081 77.7748 13.7057 77.3637L13.1823 77.8863C14.2709 79.6842 15.3596 81.482 16.4482 83.2729C13.2451 82.5343 12.8543 79.064 10.363 77.6982C10.5445 80.3392 12.1006 82.2904 13.6568 84.1022C14.0965 84.6178 15.6806 84.1579 16.7413 84.137C17.0344 84.137 17.3345 84.144 17.6206 84.0882C20.0212 83.6214 22.4148 83.1405 24.8852 82.6527C23.001 78.4717 21.6053 76.9456 20.091 77.4822C20.9493 78.9664 21.7937 80.4368 22.6451 81.9001C22.4148 82.0604 22.1915 82.2207 21.9612 82.381C20.8586 81.0152 19.7141 79.6842 18.6743 78.2696C18.0882 77.4752 17.7741 76.3672 16.4203 76.9804C16.9437 75.2941 18.1579 77.2522 18.9186 76.4648C18.9953 75.3289 19.0791 74.1303 19.1698 72.7018C20.5934 72.7018 21.8146 72.6809 23.0428 72.7018C25.3946 72.7436 27.7533 72.8621 30.105 72.8342C30.7261 72.8342 31.3402 72.43 31.9613 72.207C31.9194 72.0468 31.8776 71.8795 31.8287 71.7192C30.9355 71.3011 30.0422 70.89 29.149 70.4719C28.5628 71.0294 27.9208 71.3848 27.2927 71.3708C26.0017 71.343 24.6898 71.2454 23.4476 70.9388C22.4915 70.7019 21.1308 70.3186 20.8167 69.6148C20.2236 68.2977 19.6095 67.6218 18.1998 68.0678C17.0623 68.4232 15.3666 68.5904 14.9548 69.3779C13.8313 71.552 12.1914 70.8482 10.5445 70.8134C8.24156 70.7646 5.9317 70.7715 3.62881 70.9039C3.25198 70.9249 2.91701 71.7193 2.38665 72.3743C6.72026 72.6252 10.6282 72.8412 15.0176 73.092C14.3058 74.1303 13.8662 74.7784 13.4405 75.3986C13.9081 75.6982 14.3617 76.0397 14.8571 76.2906C15.3735 76.5484 15.9318 76.7156 16.4761 76.9107L16.4692 76.9247ZM154.245 34.5426C155.771 34.4961 156.385 35.2162 156.087 36.7028C157.301 37.0234 158.515 37.3439 159.73 37.6645C159.402 37.33 159.074 36.9955 158.746 36.661C159.611 36.2011 160.469 35.7481 161.321 35.2952C161.125 34.7586 161.014 33.8039 160.504 33.1559C159.178 31.4834 158.25 29.7831 158.802 27.5602C158.906 27.1421 158.669 26.6543 158.648 26.2014C158.62 25.4836 158.641 24.7659 158.641 24.0551L159.143 23.9715C158.718 23.7485 158.285 23.5255 158.006 23.3791C158.153 22.2293 158.271 21.2398 158.334 20.759C157.755 19.7625 157.378 19.1214 156.959 18.4176C157.615 18.0274 158.055 17.7626 158.578 17.456C158.208 17.1215 157.88 16.8288 157.259 16.2783C157.859 15.9787 158.334 15.7417 158.718 15.5536C158.334 14.8358 157.769 14.2296 157.901 13.9717C158.962 11.8951 157.155 10.6269 156.771 8.59907C155.584 10.6548 156.54 13.2122 154.112 14.1459C154.635 14.7801 155.082 15.3166 155.515 15.8323C154.977 16.7034 154.496 17.4838 154.021 18.2573C154.363 18.4664 154.789 18.7242 155.215 18.989C153.763 19.435 154.293 20.2991 154.782 21.1632C153.819 21.2468 153.058 21.3095 152.172 21.3862C152.975 21.9088 153.896 22.1945 154.14 22.7659C154.321 23.184 153.61 23.9784 153.323 24.5568C153.847 24.6892 154.594 24.8774 155.612 25.1352C155.012 25.5951 154.712 25.8251 154.321 26.1247C154.859 26.4383 155.298 26.6822 155.675 26.8982C155.815 29.2884 153.547 28.3685 152.465 29.3232C153.686 29.6438 154.733 29.9155 156.24 30.3058C155.389 31.1141 154.866 31.6158 154.356 32.1036C154.677 32.3615 154.998 32.6193 155.689 33.1698C154.279 33.2604 153.316 33.3161 152.123 33.3928C153.058 33.9224 153.679 34.2708 154.3 34.6192C153.449 34.7865 152.591 34.9468 151.53 35.1558C152.353 35.9851 150.56 38.3822 153.393 37.755C153.693 36.6401 153.972 35.6018 154.252 34.5635L154.245 34.5426ZM160.574 40.2149C160.602 40.0128 160.623 39.8107 160.651 39.6087C160.155 39.4763 159.667 39.2324 159.171 39.2254C157.287 39.1975 155.396 39.2951 153.505 39.2393C152.207 39.2045 151.725 39.7132 151.711 41.0023C151.711 41.6922 151.509 42.7375 151.041 43.0093C148.787 44.3054 145.982 42.8769 145.242 40.2776C145.11 39.8107 144.586 39.1139 144.224 39.1069C139.157 39.0024 134.091 38.9676 129.031 39.0233C128.62 39.0233 127.838 39.8038 127.88 40.1522C128.061 41.748 127.119 41.7689 126.024 41.7271C125.312 41.6992 124.593 41.5947 123.895 41.6713C122.604 41.8246 121.809 41.288 121.565 40.0686C121.334 38.9048 120.595 38.7864 119.618 38.7933C114.886 38.8352 110.162 38.8491 105.43 38.8491C104.565 38.8491 104.056 39.0024 103.825 40.0268C103.7 40.5633 102.793 41.3438 102.304 41.295C101.055 41.1766 99.2126 42.0685 98.6613 40.4727C97.9774 38.5076 96.9167 38.438 95.3256 38.9815C95.8001 39.2254 96.2607 39.4553 96.7213 39.6923C96.6934 39.8386 96.6654 39.9849 96.6445 40.1313H87.2096C87.2096 40.2567 87.2027 40.3891 87.1957 40.5145C90.2243 40.7306 93.253 40.9396 96.2816 41.1556C96.2816 41.4553 96.2677 41.7549 96.2607 42.0546H86.142C86.114 42.3194 86.0791 42.5911 86.0512 42.8559C86.77 43.065 87.4818 43.4413 88.2006 43.4622C90.0848 43.518 91.9829 43.3716 93.8671 43.4134C94.4044 43.4274 94.9348 43.8037 95.4721 44.0127C95.4023 44.2218 95.3326 44.4238 95.2558 44.6329H86.9166C86.9166 44.7444 86.9166 44.8489 86.9166 44.9604C90.0918 45.1068 93.2669 45.2461 96.4421 45.3925C96.4421 45.6433 96.4282 45.8872 96.4212 46.1381C94.6836 46.2078 92.9529 46.3053 91.2153 46.3402C89.4497 46.375 87.6772 46.3471 85.9047 46.3471C85.9047 46.6119 85.8977 46.8837 85.8907 47.1485C89.7219 47.3924 93.56 47.6433 97.3912 47.8872C97.3772 48.1241 97.3633 48.368 97.3493 48.6049H85.1789C85.1789 48.8418 85.1859 49.0788 85.1929 49.3087C92.2551 49.5317 99.3242 49.7059 106.379 49.9986C113.477 50.2913 120.629 49.3087 127.692 50.6049C127.692 50.786 127.692 50.9602 127.699 51.1414H109.366C109.359 51.3714 109.352 51.5944 109.345 51.8243C115.158 52.0264 120.964 52.2285 126.777 52.4236C126.777 52.6396 126.784 52.8557 126.791 53.0717C126.003 53.1832 125.221 53.4062 124.433 53.3922C119.185 53.3016 113.93 53.1692 108.682 53.0299C104.746 52.9254 100.818 52.779 96.8818 52.6884C93.4902 52.6118 90.0917 52.556 86.7002 52.5491C85.9465 52.5491 85.1999 52.779 84.4462 52.9044C84.4601 53.0717 84.4811 53.232 84.495 53.3992C85.1719 53.4898 85.8489 53.6431 86.5258 53.6501C89.359 53.6919 92.1923 53.6501 95.0255 53.7058C107.615 53.9567 120.211 54.3469 132.8 54.4584C142.674 54.549 152.556 54.319 162.43 54.2145C163.156 54.2075 164.21 54.3678 163.973 53.1553C163.875 52.6466 163.17 52.2564 162.744 51.8174C162.612 51.9428 162.479 52.0613 162.347 52.1867C162.563 52.5072 162.786 52.8278 163.358 53.664C151.523 53.1135 140.169 54.2772 128.801 52.9393C129.708 52.4654 130.65 52.2076 131.586 52.2285C134.126 52.2843 136.666 52.4863 139.206 52.57C139.904 52.5909 140.602 52.4167 141.3 52.3261C138.599 51.7547 135.94 51.239 133.295 51.3226C131.593 51.3714 131.132 50.2704 129.974 49.3854H143.505C143.505 49.5666 143.512 49.7408 143.519 49.922C142.926 50.0822 142.332 50.2425 141.739 50.4028L141.725 50.7442C144.517 50.9533 147.308 51.1623 150.225 51.3784C150.03 51.8313 149.883 52.1588 149.681 52.6048H158.899C158.899 52.4097 158.906 52.2215 158.913 52.0264C157.818 51.8452 156.715 51.6641 155.619 51.4759C155.64 51.1832 155.668 50.8975 155.689 50.6049C158.222 50.7233 160.748 50.8488 163.589 50.9812C162.716 47.7478 161.998 44.835 161.097 41.9849C160.958 41.5528 160.016 41.1347 159.437 41.1208C157.908 41.086 156.373 41.3508 154.838 41.3577C154.112 41.3577 153.379 41.0651 152.647 40.9048C152.674 40.6679 152.695 40.4379 152.723 40.201H160.553L160.574 40.2149ZM195.25 44.3263C194.643 43.8733 194.168 43.518 193.694 43.1695C194.273 42.41 194.852 41.6434 195.452 40.856C195.027 40.7445 194.447 40.5982 193.638 40.3961C194.078 39.9222 194.371 39.6156 194.461 39.5181C194.28 38.0895 194.126 36.8631 193.952 35.5112C195.117 35.2743 195.955 34.5217 195.25 33.2325C194.747 32.3127 193.805 31.6367 192.94 30.7239C193.624 30.5497 194.189 30.3964 195.062 30.1734C194.385 29.6229 193.924 29.2466 193.456 28.8633C195.222 25.9366 192.703 23.8878 191.949 21.4698C191.803 24.8007 191.656 28.1386 191.496 31.6228C190.714 31.6995 189.758 31.797 188.809 31.8946C188.788 31.9921 188.774 32.0897 188.753 32.1942C189.493 32.459 190.232 32.7238 190.937 32.9677C190.986 33.6437 191.028 34.2429 191.077 34.8631C190.616 34.9746 190.163 35.0861 189.248 35.3091C190.225 35.5739 190.714 35.7063 191.307 35.8666C191.14 37.0373 190.993 38.1244 190.847 39.1418C190.065 39.3229 189.402 39.4693 188.865 39.5947C190.044 40.2288 191.188 40.8351 192.326 41.4414C192.256 41.6365 192.186 41.8316 192.117 42.0197C190.867 42.2985 189.625 42.5772 188.376 42.849C191.844 42.6608 190.121 46.0266 191.782 47.1973C190.574 47.3994 189.695 47.5457 188.376 47.7687C189.43 48.1729 190.023 48.4028 190.784 48.6955C190.079 49.0927 189.611 49.3575 188.9 49.7617C190.323 50.0822 191.433 50.3331 192.535 50.584C192.5 50.8139 192.466 51.0439 192.431 51.2808C190.756 51.1902 189.088 51.0996 187.413 51.009L187.392 51.2529C188.634 51.5177 189.877 51.7895 191.223 52.0752C190.512 53.2041 189.995 54.0264 189.479 54.8486C189.856 55.0159 190.449 55.2877 191.049 55.5594C191.021 55.664 191 55.7615 190.972 55.866C189.011 56.0542 187.05 56.2423 185.089 56.4374C185.089 56.5838 185.103 56.7301 185.11 56.8765C187.253 57.1691 189.402 57.4688 191.544 57.7615C191.537 57.9844 191.523 58.2074 191.516 58.4304L185.522 58.8346C185.522 58.9112 185.529 58.9949 185.536 59.0715C186.939 59.19 188.334 59.3084 190.246 59.4687C189.304 60.0401 188.858 60.3119 188.362 60.6046C188.802 60.9251 189.123 61.1551 189.814 61.6568C187.776 61.7683 186.206 61.8519 184.636 61.9356C184.636 62.0052 184.636 62.0819 184.636 62.1516C185.934 62.277 187.225 62.3955 188.837 62.5488C188.23 63.0993 187.909 63.392 187.504 63.7613C190.533 64.5208 191.168 65.3362 190.044 66.688C190.498 66.9041 190.965 67.127 191.851 67.5452C189.248 67.7333 187.169 67.8866 185.089 68.0399C189.29 68.7089 191.696 69.854 192.305 71.4754C194.65 71.5729 196.262 70.2489 197.609 68.5486C197.846 68.249 197.644 67.5939 197.644 67.0992C197.253 67.2734 196.869 67.4615 196.478 67.6288C196.178 67.7542 195.78 68.026 195.592 67.9284C195.285 67.7681 194.936 67.357 194.922 67.0365C194.873 66.0609 195.215 65.0086 194.957 64.1097C194.496 62.5209 195.236 62.2213 196.59 62.27C196.262 61.9216 196.018 61.6638 195.724 61.3502C196.311 60.9739 196.792 60.6743 197.609 60.1516C196.394 59.9356 195.613 59.8032 194.929 59.6847C194.838 59.0576 194.957 58.3538 194.664 58.0611C193.61 57.0158 194.05 56.3399 195.006 55.6291C195.878 54.988 196.715 54.2912 197.567 53.6152C197.518 53.4898 197.469 53.3713 197.42 53.2459H194.517C194.454 53.0578 194.399 52.8626 194.336 52.6745C195.271 52.2285 196.206 51.7825 197.343 51.246C195.85 50.3888 192.926 52.1031 193.443 48.8488C194.294 47.8802 196.367 49.3923 196.387 47.3854C196.394 46.6886 195.285 45.9848 194.559 45.1486C194.636 45.058 194.95 44.6747 195.236 44.3333L195.25 44.3263ZM56.33 53.6083C57.9281 54.6535 59.0726 55.3992 60.3077 56.2005C59.8193 56.5768 59.5122 56.8137 59.1284 57.1064C59.7774 57.4827 60.2659 57.7684 61.2359 58.3329C59.8193 58.514 58.926 58.6325 57.6559 58.7928C58.6539 59.2666 59.268 59.5523 59.7285 59.7753V62.4861C58.9539 62.5906 58.0258 62.716 56.665 62.8972C58.5003 63.6846 60.3426 62.7021 61.7034 64.1515C58.4585 65.3919 55.2135 63.2317 52.2407 64.7438C52.2476 64.939 52.2546 65.1341 52.2686 65.3292C54.4319 65.2247 56.5952 65.1201 59.0377 65.0017C58.612 65.594 58.4236 65.8588 58.2003 66.1724C59.2121 66.2978 60.0914 66.4093 60.9707 66.5208C60.9707 66.7159 60.9707 66.9041 60.9707 67.0992C60.1263 67.1967 59.2819 67.2943 58.0677 67.4337C59.3796 67.6079 60.3217 67.7403 61.7453 67.9284C60.2659 69.0294 59.2889 69.7611 58.1863 70.5834C58.8772 70.8552 59.4913 71.329 60.0495 71.2663C60.8381 71.1687 61.7802 70.8621 62.2826 70.3116C62.8479 69.6845 63.5039 68.1862 63.2457 67.9284C62.1431 66.8204 62.6595 66.0469 63.2247 65.0086C63.5597 64.3954 63.476 63.5383 63.5318 62.7927C63.6016 61.8728 63.6923 60.9391 63.6434 60.0192C63.4969 57.204 63.3713 54.3818 63.0642 51.5874C62.827 49.4411 62.2477 47.3297 61.9756 45.1834C61.7383 43.2601 62.1082 41.1696 61.515 39.3926C60.4194 36.0966 60.4822 32.8074 60.552 29.4487C60.5729 28.3825 60.3077 27.3093 60.1403 25.9575C58.605 27.2884 60.3217 29.8946 57.4954 30.1107C58.7725 30.7448 59.2261 33.6437 58.5213 35.1767C58.8841 35.5042 59.261 35.8527 59.6378 36.1941C59.4843 36.1941 59.3238 36.1941 59.1703 36.1941C58.9469 37.7829 58.7236 39.3717 58.4654 41.2044C58.605 41.1626 58.3328 41.2602 58.0607 41.3299C57.8164 41.3926 57.5582 41.4344 57.307 41.4832C57.4885 41.5041 57.6699 41.5319 57.8583 41.5528C57.9281 42.3054 58.0258 43.058 58.0607 43.8176C58.1095 44.7305 57.7397 45.9081 58.1863 46.5214C59.7076 48.6328 59.917 50.8279 59.268 53.3086C58.5003 53.3922 57.7048 53.4759 56.33 53.6152V53.6083ZM185.396 73.3777C183.966 70.8691 182.151 69.4266 179.604 68.9667C177.741 68.6322 176.778 67.35 176.617 65.3989C176.562 64.7438 176.492 64.0958 176.422 63.4477C176.289 63.4616 176.157 63.4756 176.024 63.4895C175.948 65.1132 175.871 66.7298 175.794 68.3535C175.522 68.3605 175.25 68.3674 174.978 68.3744C174.81 65.8239 174.636 63.2665 174.468 60.7161C174.161 60.73 173.847 60.737 173.54 60.7509V67.4267L172.703 67.4964C172.012 65.4895 171.328 63.4825 170.504 61.0784C170.421 62.7996 170.351 64.2351 170.274 65.81C169.395 65.1828 168.683 64.6742 168.006 64.1933C164.266 65.7821 166.01 68.9807 166.562 71.9144C166.576 71.9701 166.603 72.0259 166.61 72.0886C166.673 73.1478 167.245 73.3917 168.264 73.3777C171.635 73.322 175.005 73.3777 178.383 73.3847C180.721 73.3847 183.059 73.3847 185.396 73.3847V73.3777ZM203.554 69.127C203.387 69.127 203.219 69.127 203.045 69.127C202.933 67.7751 202.822 66.4232 202.71 65.0714C202.57 65.0853 202.438 65.0923 202.298 65.1062C202.117 66.7647 201.935 68.4232 201.754 70.0817C201.614 70.0608 201.475 70.0329 201.335 70.012V64.0749C200.177 66.3257 200.547 68.7716 200.086 70.9876C198.069 70.9597 196.66 72.005 195.962 73.9492C202.668 75.97 209.514 74.5763 216.492 75.078C215.781 71.8726 213.15 70.7228 211.3 68.911C211.161 68.7786 210.798 68.6949 210.637 68.7786C208.656 69.8099 208.802 68.3396 208.683 67.1549C208.649 66.7995 208.579 66.4441 208.523 66.0957C208.39 66.0957 208.258 66.0957 208.125 66.0887C207.993 67.1131 207.86 68.1375 207.727 69.1549C207.567 69.1688 207.413 69.1827 207.253 69.1897C206.946 68.1444 206.632 67.1061 206.22 65.6985C205.941 66.5138 205.759 66.9877 205.62 67.4824C205.466 68.0051 205.355 68.5416 205.145 69.4057C204.664 68.6531 204.392 68.2281 204.085 67.7472C203.875 68.3047 203.715 68.7228 203.554 69.1409V69.127ZM73.4551 68.681C73.3156 68.7786 73.176 68.8692 73.0434 68.9667C72.1571 66.04 69.9589 65.817 67.8375 66.5138C65.3113 67.3431 65.2485 69.9771 64.3134 72.3464C71.1802 72.1443 77.712 71.9562 84.4671 71.7541C84.1531 69.789 83.9228 68.0538 83.5599 66.3396C83.4901 66.0191 82.9528 65.6567 82.569 65.5661C81.3059 65.2665 80.0219 65.0783 78.8774 64.8693C78.4726 65.2734 77.9911 65.6915 77.6003 66.1863C77.1886 66.7089 76.8606 67.2943 76.2605 68.2281C75.9953 67.0295 75.8069 66.1793 75.5417 64.9668C75.4579 66.8135 75.3882 68.2768 75.3184 69.7472C75.1369 69.7472 74.9555 69.7472 74.7671 69.7472C73.5249 67.7751 74.9136 65.4755 73.8808 63.392C73.7343 65.155 73.5947 66.918 73.4482 68.688L73.4551 68.681ZM222.752 41.8176C221.531 41.9222 220.791 41.9849 220.051 42.0476C223.806 42.4309 220.568 45.2252 221.566 46.5632C221.719 46.7722 220.721 47.8314 220.247 48.5143C221.775 48.2426 221.977 49.6711 221.956 50.6397C221.936 51.7407 221.259 52.8348 220.868 53.9288C220.714 53.894 220.561 53.8522 220.414 53.8173C220.714 54.1588 221.014 54.5072 221.433 54.988C220.533 55.1413 219.877 55.2528 218.893 55.4201C220.414 56.4374 219.758 56.8416 218.907 57.0158C219.751 58.3677 221.377 59.7893 221.217 60.9739C220.896 63.3989 222.089 65.7334 220.993 68.2768C220.428 69.5869 220.191 70.6461 218.593 71.0503C220.254 72.3464 221.747 71.8168 222.864 70.7506C224.05 69.6148 224.887 68.1026 225.955 66.6462H224.162C223.708 64.3397 222.543 62.047 225.201 60.3467C223.331 58.6325 223.199 57.8451 224.364 56.8695C223.506 55.2319 222.668 53.6083 223.052 51.7547C223.492 49.6641 224.35 47.699 223.959 45.4273C223.575 43.1835 223.715 40.849 223.401 38.5843C223.157 36.7795 222.585 35.0095 222.131 33.135C221.21 33.8597 220.651 34.2917 219.73 35.0095C221.482 34.7168 221.894 35.5042 221.998 36.7725C222.138 38.438 222.473 40.0825 222.738 41.8037L222.752 41.8176ZM229.528 70.8412C229.577 71.2872 229.884 72.1792 228.502 71.8935C226.534 71.4893 225.543 72.3185 225.271 74.5902C227.867 75.0571 228.307 75.7261 227.539 78.0536C228.46 77.4403 229.382 76.8271 230.484 76.0954C230.526 76.8411 230.547 77.3149 230.575 77.8654C232.571 77.6076 231.768 75.97 232.312 74.5275H243.15C243.171 74.3394 243.199 74.1512 243.22 73.9631C242.487 73.0084 241.754 72.0537 241.015 71.0991C240.917 71.3011 240.819 71.5032 240.721 71.7053C239.912 71.5241 239.109 71.3221 238.3 71.1827C237.965 71.1269 237.602 71.1687 237.267 71.2315C236.346 71.3917 235.397 71.4893 234.511 71.775C232.878 72.2907 232.061 71.998 231.859 70.0677C231.691 68.4789 229.354 67.8309 228.244 68.9946C227.846 69.4057 227.874 70.221 227.707 70.8482H229.528V70.8412ZM36.2251 59.1482C36.7834 60.1725 37.2928 61.0924 37.8372 62.0819C37.2789 62.2213 36.7904 62.3467 36.6927 62.3676C37.6557 63.1411 38.856 63.8588 39.7004 64.8762C40.1959 65.4755 40.0633 66.5347 38.849 66.695C37.9837 66.8135 37.1044 66.8762 35.946 66.9946C36.93 67.2803 37.5859 67.4685 38.2419 67.6566C38.221 67.796 38.207 67.9354 38.1861 68.0748C37.5231 68.2768 36.8532 68.4859 35.9599 68.7577C36.916 69.0225 37.5929 69.3291 38.2768 69.35C38.7792 69.3639 39.5818 69.134 39.7423 68.7855C40.6774 66.7926 41.8358 64.925 41.3682 62.4512C40.161 56.1099 39.2049 49.7199 38.0954 43.3577C37.9139 42.3194 37.4673 41.3299 37.1463 40.3194C36.6717 40.7794 36.3158 41.3577 36.4764 41.6156C37.4743 43.1974 36.0576 44.3333 35.8692 45.6782C35.7925 46.2356 35.9041 46.8837 36.1414 47.3924C36.2949 47.7269 36.8253 47.8941 37.2859 48.2007C36.6229 48.4865 36.1205 48.6955 35.8204 48.8279C36.7206 49.4133 37.6348 50.0056 38.549 50.5979C38.4931 50.7651 38.4303 50.9324 38.3745 51.0996C37.2719 51.1902 36.1623 51.2808 35.0737 51.3714C36.1902 52.6675 37.2161 53.8661 38.2907 55.1134C38.0325 55.4479 37.7255 55.8521 37.4254 56.2423C38.6606 57.8311 38.6257 57.9357 36.2391 59.1551L36.2251 59.1482ZM89.5753 34.905C90.4686 35.4764 91.1525 35.8178 91.7107 36.2986C93.2809 37.6366 95.186 37.1418 95.2279 35.121C95.2837 32.4521 94.8231 29.7692 94.4951 27.1003C94.1043 23.9575 93.6228 20.8217 93.1483 17.6859C93.0227 16.8288 92.8064 15.9926 92.6249 15.1424C92.3946 15.1146 92.1713 15.0797 91.941 15.0518C91.8922 15.5466 91.6968 16.0832 91.8364 16.5222C92.1085 17.3932 91.5433 20.7869 90.8524 21.4071C91.2153 21.8043 91.5782 22.2015 91.9899 22.6544C91.3618 22.8913 90.9012 23.0586 90.5663 23.184C91.9759 25.0794 91.7735 27.2327 92.1992 29.2535C92.7505 31.8667 91.4386 33.4416 89.5684 34.905H89.5753ZM46.0298 80.6876L46.1973 81.0361C54.1039 79.7399 62.0175 78.4368 70.2869 77.078C69.2611 76.0676 69.1913 74.3951 67.3769 75.1268C67.4886 75.747 67.5793 76.2906 67.677 76.8341L67.2862 77.1825C66.5116 76.5344 65.737 75.8864 64.9624 75.2313C64.9344 75.3986 64.9065 75.5658 64.8786 75.74C63.8388 75.6913 62.799 75.6355 61.7453 75.5867C61.6965 76.1512 61.6476 76.7435 61.5988 77.3358L60.8102 77.9281C60.3217 77.0292 59.8262 76.1233 59.3377 75.2244L58.8283 75.5937C59.0307 76.2557 59.24 76.9177 59.4634 77.6424C57.314 78.3532 57.3838 76.3254 56.2882 74.9526V78.2347C56.1067 78.3393 55.9323 78.4438 55.7508 78.5414C55.2763 77.8863 54.8297 77.2174 54.3202 76.5832C54.069 76.2696 53.7201 76.0397 53.42 75.7749C53.2456 76.1651 52.9245 76.5623 52.9245 76.9595C52.9245 77.4961 53.1688 78.0327 53.3014 78.5623C53.1199 78.6807 52.9315 78.7992 52.7501 78.9177C51.9825 77.9909 51.2218 77.071 50.4542 76.1442C50.3216 76.2139 50.182 76.2836 50.0494 76.3533C50.3425 77.071 50.6426 77.7888 51.0194 78.7156C49.3516 79.3706 47.6907 80.0187 46.0229 80.6667L46.0298 80.6876ZM24.4804 87.9906C27.6347 90.757 30.7191 93.4747 33.8315 96.1576C34.0339 96.3318 34.5294 96.3666 34.7876 96.2552C35.8413 95.7883 36.8602 95.2308 38.1721 94.5618C37.3487 93.7117 36.7555 93.0915 36.1553 92.4852C34.327 90.6665 32.3312 88.9801 30.7261 86.9801C29.805 85.8304 29.128 85.9418 27.8998 86.4505C30.0213 89.4888 33.6082 90.987 35.2481 94.2691C34.4735 94.0113 33.8176 93.635 33.2453 93.1542C31.1727 91.3981 29.1071 89.6212 27.0764 87.8164C26.3297 87.1474 25.6388 86.7502 24.4734 87.9906H24.4804ZM42.2685 69.796C42.0661 69.566 41.7939 69.2524 41.4659 68.8692C40.5797 71.9074 40.8588 72.2698 43.706 72.228C45.988 72.1931 48.2629 72.2488 50.5449 72.2419C51.0334 72.2419 51.5219 72.1583 51.9197 72.1234C51.1171 67.6427 47.1534 69.3291 44.6342 68.2699C44.1666 68.0748 43.1408 69.2036 42.2685 69.796ZM52.4361 81.2172C52.3174 81.4333 52.1918 81.6423 52.0732 81.8583C54.076 83.6353 56.0788 85.4262 58.1026 87.1822C58.298 87.3495 58.6957 87.4679 58.926 87.3913C60.9707 86.7293 63.0014 86.0115 65.388 85.1962C63.797 83.6841 62.4222 82.3322 60.9777 81.05C60.5729 80.6876 59.9588 80.5622 59.4424 80.3253C59.582 80.9106 59.5331 81.6632 59.889 82.0465C60.859 83.0987 62.0035 84.0046 63.3573 85.2171C61.2708 85.7816 60.559 84.1788 59.4564 83.482C58.3049 82.7573 57.6769 81.2103 56.1486 81.0848C55.9323 81.3218 55.7229 81.5587 55.5066 81.7956C57.1954 83.0778 58.8772 84.367 60.5659 85.6492C60.3636 85.907 60.1612 86.1718 59.9588 86.4296C59.0935 85.9628 58.1305 85.6213 57.3768 85.015C56.1835 84.0604 55.1646 82.8897 54.0062 81.8932C53.5945 81.5378 52.9734 81.4333 52.45 81.2103L52.4361 81.2172ZM32.3242 97.6628C32.4149 97.384 32.4986 97.1053 32.5894 96.8335C29.4142 94.0531 26.2669 91.2309 23.0219 88.5271C22.5613 88.1439 21.6192 88.346 20.9074 88.2763C20.8446 88.4505 20.7888 88.6247 20.726 88.7989C21.0889 89.231 21.3959 89.7257 21.8216 90.0881C24.5711 92.4922 27.3137 94.9102 30.1469 97.2098C30.6633 97.6279 31.5984 97.5234 32.3381 97.6628H32.3242ZM16.9437 89.663C18.0742 90.6595 19.0651 91.5445 20.0631 92.4155C22.4636 94.4991 24.8363 96.6105 27.2997 98.6175C27.7463 98.9798 28.5628 98.8823 29.2118 99.0007C29.2676 98.7986 29.3304 98.5965 29.3863 98.3875C28.9885 97.9694 28.6256 97.5234 28.1999 97.1471C25.6598 94.9521 23.0568 92.8197 20.5725 90.5689C19.5466 89.6351 18.5766 89.008 16.9367 89.656L16.9437 89.663ZM40.1749 79.7121C40.0284 79.8514 39.8749 79.9978 39.7283 80.1371C39.0863 79.4751 38.3815 78.8549 37.8162 78.1372C37.2928 77.4752 36.909 76.7017 36.4624 75.977L35.7646 76.4299C36.4764 77.5588 37.1951 78.6807 37.9069 79.8096C37.7813 79.9211 37.6487 80.0396 37.5231 80.1511C35.5273 79.4542 34.6131 77.5797 33.2942 75.9839C33.5105 77.287 33.9362 78.4856 34.5782 79.5448C34.962 80.172 35.7297 81.043 36.274 81.0082C38.521 80.8619 40.7541 80.4089 43.0989 80.0535C40.9077 76.3811 40.4401 75.9352 38.6467 76.0188C39.184 77.3149 39.6795 78.5135 40.1749 79.7051V79.7121ZM62.5548 79.7748C64.4669 84.2973 68.0189 85.8791 71.1662 83.7398C70.3079 82.4925 69.2541 81.3287 68.654 79.9699C68.0399 78.5692 67.342 78.611 65.8835 79.3567C66.8396 80.7155 67.7188 81.9489 68.7866 83.4611C68.0748 83.3217 67.349 83.3984 67.007 83.0778C66.1347 82.2486 65.2764 81.3218 64.7042 80.2765C64.111 79.1964 63.5527 79.1267 62.5478 79.7748H62.5548ZM46.5602 91.642C43.4478 88.9383 40.7262 86.569 37.9977 84.1997C37.8232 84.3879 37.6487 84.576 37.4743 84.7642C39.9237 86.9244 42.3731 89.0776 44.8226 91.2379C44.683 91.4121 44.5434 91.5863 44.4108 91.7605C43.713 91.3912 42.9384 91.1264 42.3313 90.6456C40.3494 89.0637 38.4373 87.3983 36.4764 85.7885C36.0507 85.4332 35.5412 85.1753 35.0667 84.8757C34.9551 85.0081 34.8434 85.1474 34.7317 85.2798C35.0876 85.7189 35.3947 86.1997 35.7994 86.5829C37.8302 88.5411 39.8749 90.4783 41.9475 92.3946C42.2057 92.6316 42.6941 92.8197 43.0082 92.743C44.0201 92.5061 45.004 92.1368 46.5602 91.642ZM153.037 88.9731C149.911 86.569 143.993 87.238 143.1 89.8512C144.859 89.224 146.673 88.5829 148.48 87.9418L148.655 88.4017C147.175 89.3843 145.703 90.3668 144.224 91.3494C144.286 91.5793 144.349 91.8023 144.405 92.0323C145.096 92.0323 145.85 92.2135 146.457 91.9974C147.887 91.4818 149.248 90.778 150.63 90.1438C151.404 89.7884 152.172 89.4052 153.037 88.9871V88.9731ZM110.643 80.8897C110.539 80.6598 110.434 80.4298 110.329 80.1998C109.827 80.3671 108.906 80.5065 108.892 80.7085C108.794 82.0813 107.957 81.7747 107.119 81.6841C106.798 81.6493 106.198 81.7608 106.17 81.8932C105.772 83.7398 104.481 82.7851 103.504 82.7851C102.786 82.7851 102.067 82.7851 101.348 82.7851L101.383 83.2451C101.962 83.5168 102.548 83.7816 103.127 84.0534C103.086 84.1649 103.051 84.2834 103.009 84.3949H99.5336C99.5057 84.5133 99.4708 84.6318 99.4429 84.7502C100.741 85.3635 102.039 85.9697 103.407 86.6108C105.8 84.7224 108.229 82.8061 110.657 80.8897H110.643ZM31.3123 85.8443C33.992 88.5341 36.3298 90.9731 38.7932 93.2796C39.2608 93.7186 40.1959 93.6489 40.9216 93.8092C39.505 90.8058 33.3989 85.7816 31.3123 85.8443ZM26.1064 99.7951C22.8195 95.5026 16.8809 90.8407 14.7106 90.8058C18.458 93.8789 21.5704 97.7325 26.1064 99.7951ZM85.1231 51.023V51.3714H107.391V51.023H85.1231ZM157.818 91.5305C156.534 90.0881 155.403 89.2867 153.686 90.0881C151.984 90.8894 150.239 91.6002 148.543 92.4225C148.138 92.6176 147.866 93.1054 147.538 93.4538C147.643 93.5932 147.755 93.7256 147.859 93.865C150.372 92.4295 152.891 91.0149 155.808 90.8825C155.871 91.0358 155.94 91.1891 156.003 91.3424C153.763 92.3598 151.523 93.3702 149.283 94.3876L149.548 94.9381C152.242 93.8301 154.935 92.7152 157.818 91.5236V91.5305ZM65.2694 109C62.4083 104.722 54.6064 101.656 51.9406 103.649C56.9023 104.109 61.2498 106.088 65.2694 109ZM148.536 37.978C147.608 38.0686 146.415 37.755 146.512 39.4066C146.589 40.7236 146.645 41.964 148.473 41.8455C149.395 41.7828 150.567 41.9919 150.344 40.4867C150.183 39.3996 150.616 37.755 148.536 37.985V37.978ZM124.586 39.978C124.705 40.1034 124.816 40.2288 124.935 40.3543C125.375 39.8735 126.198 39.3717 126.177 38.9118C126.135 37.9293 126.282 36.4938 124.537 36.5913C123.512 36.6471 122.437 36.654 122.458 38.1174C122.479 39.4902 123.093 40.2219 124.586 39.978ZM161.579 76.9804C161.502 76.8062 161.418 76.632 161.342 76.4648C160.093 77.071 158.843 77.6842 157.483 78.3462C157.273 77.8166 157.099 77.3707 156.896 76.862C156.143 77.1407 155.508 77.51 154.831 77.6006C154.252 77.6703 153.637 77.4194 153.037 77.3149C152.995 77.524 152.961 77.733 152.919 77.9351C154.273 78.2347 155.619 78.5414 156.973 78.834C158.899 79.2521 160.432 78.6343 161.572 76.9804H161.579ZM199.967 100.819C201.217 98.5756 202.326 96.6314 203.38 94.6524C203.561 94.311 203.526 93.858 203.596 93.4608C203.157 93.5862 202.473 93.5793 202.319 93.858C201.293 95.7534 200.344 97.6907 199.486 99.6697C199.36 99.9624 199.828 100.52 199.96 100.826L199.967 100.819ZM34.341 81.6493C33.2732 79.8514 32.4428 78.395 31.5496 76.9735C31.3612 76.6668 30.9913 76.3881 30.6563 76.3045C30.5028 76.2627 29.9794 76.8271 30.0283 76.9386C30.6842 78.402 31.2914 79.9141 32.1916 81.2242C32.4847 81.6493 33.5803 81.5239 34.341 81.6563V81.6493ZM43.7758 83.0012C43.6153 83.1963 43.4548 83.3984 43.2943 83.5935C45.5065 85.684 47.6977 87.7885 49.9448 89.8372C50.196 90.0672 50.7473 89.9696 51.159 90.0254C51.2497 89.8302 51.3474 89.6282 51.4381 89.433L43.7758 83.0081V83.0012ZM121.753 105.579C121.753 105.467 121.746 105.356 121.739 105.244C121.097 105.244 120.455 105.224 119.813 105.244C117.824 105.321 115.828 105.307 113.86 105.523C111.516 105.781 109.199 106.248 106.868 106.631C106.896 106.736 106.924 106.84 106.952 106.945C111.885 106.485 116.819 106.032 121.76 105.572L121.753 105.579ZM40.7821 83.252C40.6425 83.3984 40.5099 83.5377 40.3703 83.6841C41.6195 86.0394 46.9231 90.5132 48.1652 90.0463C45.66 87.7397 43.2245 85.4959 40.7821 83.252ZM99.5406 37.5251C99.5615 38.5285 99.5266 39.6992 100.957 39.6505C102.779 39.5947 101.962 37.985 102.262 37.0652C102.541 36.2011 102.109 35.7551 101.174 35.7481C99.9383 35.7342 99.4917 36.3753 99.5406 37.5251ZM70.0078 78.632C70.7963 81.8374 73.0294 83.7398 74.7252 82.7642C73.9995 81.935 73.2877 81.0848 72.527 80.2835C71.8501 79.5727 71.7524 78.0048 70.0078 78.632ZM53.2874 89.2728C53.413 89.1264 53.5317 88.9731 53.6573 88.8268C51.5219 86.7711 49.4144 84.7015 47.2301 82.6945C46.937 82.4228 46.302 82.5134 45.8275 82.4367C45.7507 82.59 45.6739 82.7503 45.5972 82.9036L53.2874 89.2728ZM24.5921 76.625C23.957 77.9072 24.7526 80.4925 26.0854 81.5587C26.567 81.942 27.3695 81.9211 28.4581 82.1928C26.9438 80.0047 25.8063 78.3671 24.599 76.632L24.5921 76.625ZM55.2553 109.453C55.2902 109.251 55.3321 109.056 55.367 108.854C51.7591 108.157 48.1513 107.46 44.5365 106.764C44.4806 107.07 44.4248 107.37 44.362 107.676C47.9908 108.269 51.6196 108.854 55.2484 109.446L55.2553 109.453ZM49.5819 81.7956L49.233 82.1998C51.2567 84.4645 53.113 86.9314 55.9951 88.2136C56.1137 88.0812 56.2323 87.9418 56.351 87.8094C54.0969 85.8094 51.8429 83.8025 49.5889 81.8026L49.5819 81.7956ZM80.0637 82.0674L80.2452 81.5448C79.6659 80.4716 79.1356 79.3636 78.4866 78.3323C78.2842 78.0048 77.7887 77.7957 77.391 77.6773C77.2165 77.6285 76.7141 78.0605 76.735 78.1163C77.1467 79.071 77.4817 80.0953 78.1098 80.8967C78.5494 81.4542 79.4008 81.6911 80.0637 82.0674ZM19.3373 96.6872C17.3833 95.0705 15.4363 93.4608 13.4824 91.8441C13.3777 91.9696 13.273 92.102 13.1614 92.2274C14.6408 94.4225 16.4971 96.1576 19.3373 96.6872ZM42.75 76.3184C43.4478 79.5866 44.2852 80.3671 45.8624 79.0988C44.362 78.6738 45.4367 75.74 42.75 76.3184ZM83.3087 81.0639L83.4971 80.5831C82.9109 79.726 82.3945 78.8201 81.7037 78.0605C81.5083 77.8445 80.8174 78.0745 80.3568 78.0954C80.7546 78.8898 81.0267 79.7957 81.592 80.4507C81.9339 80.8479 82.7225 80.8688 83.3017 81.0639H83.3087ZM52.1499 104.694C52.1081 104.875 52.0662 105.063 52.0243 105.244C54.6692 106.025 57.321 106.805 59.9658 107.586C57.642 105.732 54.8785 105.258 52.1499 104.694ZM105.709 109.858C107.789 109.363 109.876 108.861 111.955 108.366C109.638 107.948 107.342 107.593 105.709 109.858ZM86.8607 76.8829C87.3562 77.74 87.6912 78.4995 88.1936 79.1267C88.4309 79.4194 88.9822 79.5309 89.4079 79.5797C89.5823 79.6006 89.9312 79.273 89.9801 79.0501C90.1964 78.1163 88.1238 76.5205 86.8607 76.8829ZM49.2678 78.6459C48.584 77.6564 48.7724 76.0745 47.0557 76.2975C46.7975 76.3324 46.3509 77.071 46.4486 77.287C46.9231 78.3602 47.4534 79.5309 49.2678 78.6459ZM73.7412 78.2557C74.481 80.8828 75.5975 82.0186 77.2723 82.0186C75.6952 81.1127 75.6254 78.834 73.7412 78.2557ZM30.4051 81.6981C29.7561 80.2417 29.135 78.7853 28.4511 77.3567C28.3325 77.1059 27.9836 76.9177 27.6975 76.8062C27.6137 76.7714 27.3067 77.0431 27.2439 77.2313C26.881 78.2696 29.3374 81.5517 30.4121 81.705L30.4051 81.6981ZM86.9235 79.7121C86.2536 78.8898 85.6744 78.1163 85.0184 77.4264C84.844 77.2452 84.3973 77.2452 84.0973 77.287C83.9647 77.3079 83.7972 77.6355 83.7832 77.8375C83.6786 79.071 85.3464 80.1929 86.9305 79.7121H86.9235ZM203.505 101.809C203.701 101.886 203.896 101.969 204.092 102.046C204.852 100.234 205.62 98.4223 206.381 96.6036C206.15 96.506 205.913 96.4154 205.683 96.3179L203.505 101.802V101.809ZM162.661 104.575C164.468 103.447 166.282 102.318 168.09 101.189C165.654 101.335 163.986 102.694 162.661 104.575ZM95.4931 77.2592C94.7882 76.625 94.3905 76.0954 93.8601 75.8655C93.6577 75.7749 93.1553 76.3742 92.7924 76.6599C93.2739 77.1616 93.7275 77.7121 94.2718 78.1302C94.3625 78.1999 94.879 77.7051 95.4931 77.2522V77.2592ZM46.1555 105.614C46.1485 105.837 46.1345 106.06 46.1275 106.283C48.2001 106.436 50.2727 106.582 52.3523 106.736C52.3593 106.638 52.3732 106.548 52.3802 106.45C50.3076 106.171 48.235 105.893 46.1624 105.614H46.1555ZM45.7368 73.7192C45.7437 73.9352 45.7577 74.1512 45.7647 74.3673C46.8254 74.8899 47.8442 75.0641 48.7654 74.2558C48.7514 74.0746 48.7445 73.9004 48.7305 73.7192H45.7298H45.7368ZM246.269 78.5623C246.165 77.7679 246.081 77.1337 245.92 75.9421C245.034 76.9665 244.504 77.5867 243.652 78.5623H246.269ZM76.8048 74.8829C76.728 75.1129 76.6513 75.3498 76.5745 75.5798C77.384 75.7958 78.2005 76.0118 79.3729 76.3254C78.7657 74.4578 77.9981 74.1234 76.8048 74.8829ZM60.0495 109.934C60.1333 109.725 60.217 109.509 60.3008 109.3C58.7446 108.631 57.1814 107.969 55.6252 107.3C55.5624 107.44 55.4996 107.572 55.4368 107.711C56.972 108.457 58.5143 109.196 60.0495 109.941V109.934ZM240.317 76.8689C240.191 76.7296 240.059 76.5832 239.933 76.4439C239.326 76.9526 238.712 77.4682 237.972 78.0884C239.835 78.9246 240.066 78.7644 240.31 76.8689H240.317ZM174.433 91.9835C174.831 90.9034 175.229 89.8233 175.634 88.7432C174.594 89.5724 173.191 90.2414 174.433 91.9835ZM188.872 95.6489C189.032 95.7395 189.186 95.837 189.346 95.9276C190.239 94.4782 191.14 93.0357 192.033 91.5863L191.53 91.2936C190.644 92.743 189.758 94.1925 188.872 95.6419V95.6489ZM101.299 118.129C101.355 118.289 101.404 118.457 101.46 118.617C102.737 118.248 104.021 117.885 105.298 117.516C105.221 117.279 105.144 117.049 105.067 116.812C103.811 117.251 102.555 117.69 101.299 118.129ZM70.9429 75.4334C70.7684 75.6773 70.587 75.9282 70.4125 76.1721C70.9778 76.4299 71.5221 76.7783 72.1153 76.8968C72.3316 76.9386 72.6526 76.4578 72.9318 76.2139C72.52 75.7749 72.1292 75.315 71.6686 74.9317C71.6128 74.8829 71.2011 75.2592 70.9499 75.4404L70.9429 75.4334Z" fill="black"/>
</g>
<defs>
<clipPath id="clip0_216_177">
<rect width="248" height="125" fill="white"/>
</clipPath>
</defs>
</svg>
