<svg width="145" height="31" viewBox="0 0 145 31" fill="none" xmlns="http://www.w3.org/2000/svg">
<path d="M4.96875 30H0.671875V0.957031H4.96875V30ZM33.9531 30H30.6719L14.5781 7.44141V30H12.5859V4.64844L9.98828 0.957031H15.2227L31.9414 24.4336V0.957031H33.9531V30ZM54.6562 30.5664C53.224 30.5664 51.8438 30.3841 50.5156 30.0195C49.2005 29.6549 47.9635 29.1471 46.8047 28.4961C45.6589 27.832 44.6107 27.0378 43.6602 26.1133C42.7227 25.1888 41.9154 24.1667 41.2383 23.0469C40.5612 21.9141 40.0339 20.7031 39.6562 19.4141C39.2917 18.112 39.1094 16.7578 39.1094 15.3516C39.1094 13.9714 39.2917 12.6367 39.6562 11.3477C40.0339 10.0586 40.5612 8.85417 41.2383 7.73438C41.9154 6.61458 42.7227 5.59245 43.6602 4.66797C44.6107 3.74349 45.6589 2.95573 46.8047 2.30469C47.9635 1.65365 49.2005 1.14583 50.5156 0.78125C51.8438 0.416667 53.224 0.234375 54.6562 0.234375C56.0755 0.234375 57.4427 0.416667 58.7578 0.78125C60.0729 1.13281 61.3034 1.64062 62.4492 2.30469C63.5951 2.95573 64.6367 3.74349 65.5742 4.66797C66.5247 5.59245 67.332 6.61458 67.9961 7.73438C68.6732 8.85417 69.194 10.0586 69.5586 11.3477C69.9362 12.6367 70.125 13.9714 70.125 15.3516C70.125 16.7578 69.9362 18.112 69.5586 19.4141C69.194 20.7031 68.6732 21.9141 67.9961 23.0469C67.332 24.1667 66.5247 25.1888 65.5742 26.1133C64.6367 27.0378 63.5951 27.832 62.4492 28.4961C61.3034 29.1471 60.0729 29.6549 58.7578 30.0195C57.4427 30.3841 56.0755 30.5664 54.6562 30.5664ZM54.6562 28.6719C56.4271 28.6719 57.9896 28.3268 59.3438 27.6367C60.7109 26.9466 61.8568 26.0026 62.7812 24.8047C63.7057 23.6068 64.4023 22.2005 64.8711 20.5859C65.3529 18.9583 65.5938 17.2135 65.5938 15.3516C65.5938 13.5026 65.3594 11.7708 64.8906 10.1562C64.4219 8.54167 63.7253 7.14193 62.8008 5.95703C61.8893 4.77214 60.75 3.84115 59.3828 3.16406C58.0156 2.47396 56.4401 2.12891 54.6562 2.12891C52.8464 2.12891 51.2578 2.47396 49.8906 3.16406C48.5365 3.84115 47.3971 4.77214 46.4727 5.95703C45.5612 7.14193 44.8711 8.54167 44.4023 10.1562C43.9466 11.7708 43.7188 13.5026 43.7188 15.3516C43.7188 17.2135 43.9531 18.9583 44.4219 20.5859C44.8906 22.2005 45.5807 23.6068 46.4922 24.8047C47.4167 26.0026 48.5625 26.9466 49.9297 27.6367C51.2969 28.3268 52.8724 28.6719 54.6562 28.6719ZM81.0039 0.957031H85.4961L95.0469 24.6484L105.008 0.957031H107.215L96.1211 27.3633L97.2148 30H92.6055L81.0039 0.957031ZM115.164 30H110.867V0.957031H115.164V30ZM144.148 30H140.867L124.773 7.44141V30H122.781V4.64844L120.184 0.957031H125.418L142.137 24.4336V0.957031H144.148V30Z" fill="#0D0D0D"/>
</svg>
